<?xml version="1.0" encoding="UTF-8"?>
<svg width="24px" height="25px" viewBox="0 0 24 25" version="1.1" xmlns="http://www.w3.org/2000/svg" xmlns:xlink="http://www.w3.org/1999/xlink">
    <!-- Generator: sketchtool 61.2 (101010) - https://sketch.com -->
    <title>61720229-3BE1-427D-97FF-3199F892821F</title>
    <desc>Created with sketchtool.</desc>
    <defs>
        <path d="M24,12.6803817 L24,15.0205726 L13.4691411,15.0205726 L13.4691411,12.6803817 L24,12.6803817 Z M6.84416401,1.15586001 C6.96306554,1.15586001 7.06827537,1.20149898 7.15964939,1.29306516 L7.15964939,1.29306516 L7.84538692,1.97870661 C7.93695311,2.07008063 7.98259208,2.17529047 7.98259208,2.29419199 C7.98259208,2.41304548 7.93695311,2.51825531 7.84538692,2.60967738 L7.84538692,2.60967738 L2.4551844,8.00007206 L7.84553105,13.390707 C7.93709723,13.482081 7.9827362,13.5872908 7.9827362,13.7060002 C7.9827362,13.8249978 7.93709723,13.9302557 7.84553105,14.0216297 L7.84553105,14.0216297 L7.15984156,14.7073672 C7.06827537,14.7987412 6.96306554,14.84414 6.84416401,14.84414 C6.72540661,14.84414 6.62019677,14.7987412 6.52877471,14.7073672 L6.52877471,14.7073672 L0.137109073,8.31531724 C0.0456870107,8.22399126 -4.17443857e-14,8.11892555 -4.17443857e-14,8.00007206 C-4.17443857e-14,7.88121858 0.0456870107,7.7759607 0.137109073,7.68458668 L0.137109073,7.68458668 L6.52877471,1.29306516 C6.62014873,1.2016431 6.72535857,1.15586001 6.84416401,1.15586001 Z M24,6.82990457 L24,9.17009543 L13.4691411,9.17009543 L13.4691411,6.82990457 L24,6.82990457 Z M24,0.979427404 L24,3.31961827 L13.4691411,3.31961827 L13.4691411,0.979427404 L24,0.979427404 Z" id="path-1"></path>
    </defs>
    <g id="Desktop" stroke="none" stroke-width="1" fill="none" fill-rule="evenodd">
        <g id="Dashboard" transform="translate(-126.000000, -19.000000)">
            <g id="Topbar/desktop">
                <g id="icons/close-menu">
                    <g>
                        <g transform="translate(126.000000, 24.000000)">
                            <mask id="mask-2" fill="white">
                                <use xlink:href="#path-1"></use>
                            </mask>
                            <use id="Combined-Shape" fill="#000000" fill-rule="nonzero" xlink:href="#path-1"></use>
                            <g id="colors/n300" mask="url(#mask-2)" fill="#A0AABB">
                                <g transform="translate(0.000000, -4.000000)" id="Rectangle">
                                    <rect x="0" y="0" width="24" height="24"></rect>
                                </g>
                            </g>
                        </g>
                    </g>
                </g>
            </g>
        </g>
    </g>
</svg>