<svg xmlns="http://www.w3.org/2000/svg" xmlns:xlink="http://www.w3.org/1999/xlink" width="40" height="40" viewBox="0 0 40 40">
    <defs>
        <path id="prefix__a" d="M38.438 27.383c.862 0 1.562-.7 1.562-1.563v-9.53c0-3.447-2.804-6.25-6.25-6.25h-3.5c.425-1.621.688-3.147.688-4.063 0-3.274-2.664-5.938-5.938-5.938-3.274 0-5.938 2.664-5.938 5.938 0 .916.263 2.442.689 4.062H16.25c-3.446 0-6.25 2.804-6.25 6.25v2.485c-1.62-.426-3.146-.688-4.063-.688C2.664 18.086 0 20.749 0 24.023c0 3.274 2.664 5.938 5.938 5.938.864 0 2.381-.193 4.062-.616v4.366c0 3.446 2.804 6.25 6.25 6.25h4.531c.747 0 1.432-.343 1.878-.942.44-.592.578-1.368.367-2.076-.61-2.047-.838-3.644-.838-4.17 0-1.55 1.261-2.812 2.812-2.812 1.55 0 2.813 1.262 2.813 2.812 0 .526-.228 2.123-.839 4.17-.211.708-.074 1.484.367 2.076.446.599 1.13.942 1.878.942h4.531c3.446 0 6.25-2.804 6.25-6.25 0-.863-.7-1.563-1.563-1.563-.862 0-1.562.7-1.562 1.563 0 1.723-1.402 3.125-3.125 3.125h-3.5c.425-1.62.688-3.146.688-4.063 0-3.274-2.664-5.937-5.938-5.937-3.274 0-5.938 2.663-5.938 5.937 0 .917.263 2.442.689 4.063H16.25c-1.723 0-3.125-1.402-3.125-3.125V28.32c0-.747-.343-1.432-.943-1.878-.591-.44-1.367-.578-2.075-.367-1.87.558-3.518.76-4.17.76-1.55 0-2.812-1.26-2.812-2.812 0-1.55 1.262-2.812 2.813-2.812.525 0 2.122.228 4.17.838.707.212 1.483.075 2.075-.366.599-.447.942-1.131.942-1.878v-3.516c0-1.723 1.402-3.125 3.125-3.125h4.531c.747 0 1.432-.343 1.878-.942.44-.592.578-1.368.367-2.076-.61-2.047-.838-3.644-.838-4.17 0-1.55 1.261-2.812 2.812-2.812 1.55 0 2.813 1.262 2.813 2.813 0 .525-.228 2.122-.839 4.17-.211.707-.074 1.483.367 2.075.446.599 1.13.942 1.878.942h4.531c1.723 0 3.125 1.402 3.125 3.125v9.531c0 .863.7 1.563 1.563 1.563z"/>
    </defs>
    <g fill="none" fill-rule="evenodd">
        <mask id="prefix__b" fill="#fff">
            <use xlink:href="#prefix__a"/>
        </mask>
        <use fill="#000" fill-rule="nonzero" xlink:href="#prefix__a"/>
        <g fill="#C0C6D2" mask="url(#prefix__b)">
            <path d="M0 0H40V40H0z"/>
        </g>
    </g>
</svg>
