<svg xmlns="http://www.w3.org/2000/svg" width="640" height="533" viewBox="0 0 640 533">
    <g fill="none" fill-rule="evenodd">
        <path fill="#EDE6F3" d="M-44.13 227.14c-19.581 10.907-34.773 31.313-31.399 52.17 4.702 29.067 41.534 46.643 46.65 75.65 4.94 28.022-21.566 52.556-25.773 80.678-4.622 30.88 19.787 60.807 50.557 73.745 30.77 12.939 66.237 12.09 99.709 7.614 33.47-4.476 66.603-12.333 100.425-12.598 36.922-.29 73.118 8.476 109.04 16.348 35.921 7.872 72.823 14.95 109.525 11.236 36.702-3.718 73.71-19.948 92.49-49.247 22.536-35.158 15.652-82.496 42.103-115.252 14.774-18.295 37.84-29.183 55.49-45.166 27.221-24.648 40.206-61.948 33.628-96.593-6.58-34.644-32.54-65.66-67.228-80.324-33.163-14.018-73.912-14.316-100.882-36.965C453.16 94.12 444.777 73.264 431.84 55.67 409.466 25.23 372.102 4.563 332.434.679c-39.667-3.886-80.906 9.087-109.722 34.511-21.328 18.82-39.517 45.671-68.915 48.22-21.191 1.835-40.747-10.167-61.738-13.427-34.395-5.343-71.205 16.753-79.812 47.908-3.84 13.898-.077 28.208 4.568 41.804 17.396 50.92-44.205 58.122-60.945 67.446" opacity=".436"/>
        <path fill="#839EBC" d="M544.681 314c.36 0 .675-.025.948-.076a2.39 2.39 0 0 0 .724-.25c.211-.114.37-.272.482-.472.11-.197.165-.434.165-.71 0-.433-.109-.83-.326-1.19a2.786 2.786 0 0 0-.796-.863c.206-.076.384-.185.532-.328.15-.143.223-.298.223-.463 0-.473-.268-1.074-.807-1.803.565-.544.848-1.454.848-2.73 0-.433-.039-.834-.114-1.203-.077-.37-.19-.7-.341-.988a1.79 1.79 0 0 0-.592-.678 1.478 1.478 0 0 0-.844-.246c-.683 0-1.17.37-1.46 1.11a2.13 2.13 0 0 0-.366-.54 2.151 2.151 0 0 0-.55-.457l-.177-.097-.23.79c.187.062.396.17.627.326.231.155.395.307.49.451a4.71 4.71 0 0 0-.151.755 6.155 6.155 0 0 0-.067.807c0 .961.15 1.72.45 2.28.3.562.774.842 1.424.842.102 0 .229-.017.378-.048.148-.034.251-.064.31-.095.01.025.053.112.127.256a7.9 7.9 0 0 1 .167.337l.112.285.056.285c0 .144-.189.258-.567.338-.08.03-.27.075-.573.131a8.29 8.29 0 0 0-.515.11c-.557.13-.978.359-1.265.687-.286.326-.43.784-.43 1.371 0 .71.189 1.232.567 1.57.378.336.891.506 1.541.506m.721-3.409c.573.467.86.977.86 1.53 0 .342-.123.59-.367.743-.245.153-.645.23-1.203.23-.442 0-.793-.093-1.05-.282-.258-.188-.387-.475-.387-.856 0-.327.088-.582.263-.762.176-.18.513-.333 1.015-.453l.87-.15m-.636-7.784a.82.82 0 0 1 .478.146c.14.1.25.223.333.374.081.15.147.333.2.544.051.21.086.415.102.615.018.198.027.407.027.629 0 1.56-.378 2.338-1.134 2.338a.872.872 0 0 1-.5-.143.992.992 0 0 1-.326-.363 2.148 2.148 0 0 1-.183-.547 4.628 4.628 0 0 1-.088-.617 9.658 9.658 0 0 1-.02-.668c0-1.539.37-2.308 1.111-2.308"/>
        <path fill="#E9ECF2" d="M446.857 306.434c4.825 2.837 12.677 2.893 17.539.123 4.862-2.77 4.895-7.316.07-10.156-4.822-2.838-12.675-2.894-17.538-.121-4.862 2.77-4.895 7.316-.07 10.154zM346.325 226l71.44 42.037c18.113-5.574 41.19-3.851 56.42 5.11 18.526 10.902 18.404 28.367-.274 39.008-4.193 2.388-8.966 4.23-14.054 5.527a74.636 74.636 0 0 1-11.168 1.934c-14.86 1.45-30.717-1.207-42.148-7.935-13.844-8.146-17.27-19.958-10.326-29.849l-9.858-5.8.28-6.276-10.375-.072.261-5.878-10.374-.072.262-5.879-10.375-.073.262-5.877-10.375-.072.262-5.88-11.076-.077-3.38-1.988L328 228.455 346.325 226zM308.157 492.453l96.459-55.778c6.494-3.77 5.68-10.358-1.82-14.713l-93.617-54.36c-7.5-4.354-18.843-4.828-25.337-1.056l-96.458 55.777c-6.494 3.773-5.68 10.359 1.82 14.714l93.617 54.36c7.5 4.355 18.843 4.829 25.336 1.056"/>
        <path fill="#B0B1CE" d="M194.856 366l16.745-9.596-61.743-35.38c-2.916-1.672-2.916-4.39 0-6.062l63.076-36.144c2.916-1.672 7.66-1.672 10.577 0l61.742 35.38L302 304.603l-61.743-35.383c-12.148-6.96-31.918-6.96-44.069.002l-63.076 36.145c-12.15 6.962-12.15 18.291-.001 25.253L194.856 366"/>
        <path fill="#D6DCE7" d="M168 369.902c0-8.917 5.433-19.273 12.136-23.135l111.666-64.32c3.002-1.729 5.743-1.852 7.862-.671l.007-.004L433 359.07 304.065 456l-131.353-76.062a5.967 5.967 0 0 1-1.16-.673h-.003.002c-2.194-1.658-3.551-4.91-3.551-9.363"/>
        <path fill="#7778AB" d="M303.061 456l-131.35-75.308a5.981 5.981 0 0 1-1.159-.666h-.003l.002-.002c-2.194-1.64-3.551-4.859-3.551-9.269 0-4.214 1.248-8.747 3.272-12.755L320 443.392 303.061 456"/>
        <path fill="#B0B1CE" d="M312.054 455.54l110.895-64.635c6.657-3.88 12.051-14.287 12.051-23.248 0-8.958-5.394-13.076-12.051-9.198l-110.895 64.637C305.397 426.974 300 437.383 300 446.341c0 8.96 5.397 13.078 12.054 9.199"/>
        <path fill="#FFFFFE" d="M327.516 434.706l13.967-7.863c1.39-.783 2.517-2.884 2.517-4.692 0-1.809-1.128-2.64-2.517-1.856l-13.967 7.86c-1.39.785-2.516 2.885-2.516 4.693 0 1.808 1.126 2.64 2.516 1.858"/>
        <path fill="#7778AB" d="M429 207.834L406.038 221l-23.429-13.876.063-6.035.2.118.018-.426-10.42-.073.063-5.942-10.218-.072.062-5.943-10.218-.072.06-5.942-10.217-.072.06-5.943-10.922-.078-3.393-2.009L324 159.037l.063-6.037 1.806 5.784 16.536-2.229L429 207.835"/>
        <path fill="#D6DCE7" d="M406.04 214l-23.43-13.779.28-6.299-10.418-.073.261-5.9-10.419-.072.262-5.901-10.419-.073.265-5.901-10.42-.071.263-5.902-11.126-.078-3.395-1.995L324 152.463 342.405 150 429 200.926 406.04 214"/>
        <path fill="#7778AB" d="M390 205.835c2.384-3.354 5.967-6.49 10.762-9.186 3.378-1.9 7.138-3.439 11.123-4.649L429 201.94 405.779 215 390 205.835"/>
        <path fill="#B0B1CE" d="M325.618 156l-.618-2.59 3.037-.41L400 195.817 396.21 198l-70.592-42"/>
        <path fill="#CECBC5" d="M483.814 226l.186-8-2 5.402 1.814 2.598"/>
        <path fill="#7778AB" d="M443.046 229.921c-4.848 2.812-4.88 7.428-.07 10.309 4.809 2.881 12.64 2.936 17.488.125 4.848-2.814 4.88-7.428.07-10.31-4.81-2.88-12.64-2.935-17.488-.124zm26.906 16.116c-18.627 10.803-48.702 10.586-67.177-.48-9.263-5.548-13.849-12.77-13.774-19.955l-.001.004.259-9.127 1.518 1.726c2.144-4.5 6.226-8.738 12.272-12.242 18.623-10.802 48.7-10.587 67.174.479 18.475 11.067 18.353 28.794-.271 39.595z"/>
        <path fill="#F4F4F1" d="M444.047 220.92c-4.85 2.815-4.881 7.429-.071 10.31 4.81 2.88 12.64 2.937 17.488.125 4.849-2.812 4.881-7.428.07-10.309-4.808-2.88-12.637-2.936-17.487-.125zm26.903 16.117c-18.623 10.802-48.7 10.587-67.173-.48-18.475-11.066-18.353-28.793.271-39.594 18.625-10.802 48.7-10.587 67.176.48 18.474 11.066 18.352 28.793-.274 39.594z"/>
        <path fill="#B0B1CE" d="M448 242.323c4.168.655 8.78.082 12.061-1.792 3.538-2.023 4.54-4.97 3.029-7.544l8.584-6.847s4.487-5.092 8.93-10.14c6.91 10.162 3.272 22.132-10.89 30.226-6.249 3.571-13.25 5.598-21.192 6.774L448 242.323"/>
        <path fill="#D6DCE7" d="M444.047 220.92c-4.85 2.815-4.881 7.429-.071 10.31 4.81 2.88 12.64 2.937 17.488.125 4.849-2.812 4.881-7.428.07-10.309-4.808-2.88-12.637-2.936-17.487-.125zm26.903 16.117c-4.18 2.425-8.939 4.295-14.013 5.611a72.987 72.987 0 0 1-11.136 1.961c-14.815 1.474-30.628-1.223-42.024-8.052-18.475-11.066-18.353-28.793.271-39.594 18.625-10.802 48.7-10.587 67.176.48 18.474 11.066 18.352 28.793-.274 39.594z"/>
        <path fill="#7778AB" d="M478.998 217.277c-.912-5.29-4.943-10.456-12.119-14.553-16.533-9.437-43.449-9.62-60.116-.41-8.284 4.578-12.468 10.614-12.563 16.686-1.189-6.896 2.931-13.997 12.365-19.21 16.666-9.211 43.582-9.027 60.115.408 8.316 4.748 12.414 10.93 12.318 17.079"/>
        <path fill="#7778AB" d="M466.913 221.88c3.374 0 7.154 1.191 11.098 3.541 14.028 8.367 25.35 28.622 25.233 45.155-.052 7.703-2.573 13.383-7.1 15.994-4.526 2.61-10.615 1.908-17.152-1.99-14.03-8.365-25.35-28.621-25.236-45.153.032-4.536.943-8.486 2.64-11.424 1.145-1.985 2.648-3.523 4.463-4.572 1.795-1.037 3.836-1.551 6.054-1.551zm23.19 73.12c3.366 0 6.53-.815 9.376-2.459 6.716-3.874 10.453-11.657 10.52-21.919.132-18.715-12.685-41.649-28.57-51.123-8.702-5.19-17.192-5.917-23.908-2.038-2.86 1.652-5.2 4.03-6.952 7.066-2.33 4.034-3.53 9.031-3.568 14.854-.13 18.716 12.687 41.65 28.572 51.123 5.013 2.988 9.957 4.496 14.53 4.496z"/>
        <path fill="#D6DCE7" d="M458.741 238.697L445.851 242 444 232c4.676 2.867 12.287 2.923 17 .124l-2.259 6.573"/>
        <path fill="#D6DCE7" d="M471 236.597c-4.233 2.254-9.05 3.993-14.186 5.216a79.858 79.858 0 0 1-11.273 1.824c-14.997 1.37-31.005-1.138-42.541-7.487l54.664-1.15L471 236.597"/>
        <path fill="#7778AB" d="M450.352 244.172s5.701-.98 11.648-3.172v8.692c-2.834 1.045-7.505 2.558-11.505 3.117-12.28 1.712-.143-8.637-.143-8.637"/>
        <path fill="#7778AB" d="M459 241.483c2.369-.746 4.95-1.698 7.332-2.889 6.933-3.467-1.837 9.376-1.837 9.376s-2.362 1.004-5.495 2.03v-8.517"/>
        <path fill="#B0B1CE" d="M323 388.218L347.213 404 359 402.066 330.21 388l-7.21.218"/>
        <path fill="#7778AB" d="M351.264 465.16s6.617-3.53 10.681 1.727c4.062 5.254 9.871 17.658 10.051 26.041.18 8.38-6.272 7.817-10.106 5.831-3.837-1.984-15.04-19.17-15.719-22.538-.677-3.37.8-7.923 1.879-8.814 1.077-.89 3.214-2.247 3.214-2.247"/>
        <path fill="#B0B1CE" d="M350.337 463.715l-.333 7.428c-.071 1.58.727 3.084 2.112 3.864 1.26.71 3.09 1.256 5.566.86 5.436-.869 5.922-2.411 6.31-9.838.387-7.426-13.655-2.314-13.655-2.314"/>
        <path fill="#7778AB" d="M377.264 452.159s6.617-3.528 10.68 1.726c4.063 5.255 9.872 17.66 10.052 26.043.18 8.381-6.272 7.816-10.106 5.833-3.836-1.985-15.04-19.172-15.718-22.54-.679-3.37.798-7.921 1.877-8.814 1.078-.89 3.215-2.248 3.215-2.248"/>
        <path fill="#B0B1CE" d="M375.337 449.714l-.333 7.428c-.071 1.58.727 3.085 2.112 3.865 1.26.71 3.09 1.256 5.566.86 5.436-.869 5.922-2.411 6.31-9.837.387-7.426-13.655-2.316-13.655-2.316"/>
        <path fill="#D6DCE7" d="M314.145 319.442c2.026-32.844 35.71 4.831 35.71 4.831l23.055 22.507 20.76 22.715a20.322 20.322 0 0 1 5.155 16.374l-8.396 63.69c-.415 3.146-3.118 5.466-6.303 5.441a21.529 21.529 0 0 1-3.11-.27c-7.493-1.162-6.94-8.258-6.94-8.258l1.535-59.57-43.597-26.176s-19.894-8.441-17.87-41.284"/>
        <path fill="#B0B1CE" d="M359 376.266l5.96-2.266c.137 0 10.127 10.008 10.04 13.51l-4.482 1.49-11.256-11.315-.262-1.419M324.036 387.43s-25.814-15.191-28.903-21.56c-1.211-2.494-3.091-5.1 4.441-8.87L334 382.292 332.508 391l-8.472-3.57"/>
        <path fill="#D6DCE7" d="M289.138 332.437c2.162-32.833 35.715 4.832 35.715 4.832l23.056 22.509 20.76 22.714a20.326 20.326 0 0 1 5.156 16.375l-8.398 63.692c-.414 3.145-3.116 5.465-6.302 5.441a21.57 21.57 0 0 1-3.11-.274c-7.493-1.161-6.94-8.256-6.94-8.256l1.535-59.57-43.6-26.178s-19.846-11.264-17.872-41.285"/>
        <path fill="#B0B1CE" d="M308.928 225.682C283.49 236.307 284 251.453 284 251.453s4.983 55.53 3.282 92.616c-.711 15.504 81.766 16.687 69.466-24.675-14.501-48.767-9.067-88.248-15.855-94.202-6.79-5.955-25.386-2.257-31.966.49"/>
        <path fill="#F3BCA9" d="M301.23 240.302c1.337 5.212 8.139 7.959 15.191 6.133 7.054-1.822 11.687-7.525 10.349-12.737-1.337-5.211-8.139-7.957-15.191-6.135-7.053 1.826-11.687 7.529-10.349 12.739"/>
        <path fill="#FFFFFE" d="M315.923 228.398c4.672 0 8.58 2.174 9.48 5.666.538 2.09-.087 4.374-1.764 6.428-1.762 2.16-4.445 3.791-7.556 4.592-6.288 1.614-12.337-.689-13.486-5.146-.538-2.091.087-4.374 1.764-6.428 1.762-2.162 4.445-3.792 7.556-4.595a16.138 16.138 0 0 1 4.006-.517zM312.134 248c1.476 0 3.007-.19 4.549-.586 3.604-.929 6.736-2.847 8.821-5.402 2.172-2.66 2.964-5.697 2.228-8.548-1.477-5.743-8.844-8.83-16.415-6.878-3.604.928-6.736 2.849-8.821 5.404-2.172 2.662-2.964 5.697-2.228 8.547 1.177 4.574 6.09 7.463 11.866 7.463z"/>
        <path fill="#F3BCA9" d="M319.776 225.873s-.219.98.222 8.727c.138 2.436-8.752 4.711-11.05 2.507-2.299-2.204-1.38-4.497-1.931-12.786-.552-8.29 12.759 1.552 12.759 1.552"/>
        <path fill="#E09689" d="M307 223s2.193 8.673 13 12l-.165-7.882L307 223"/>
        <path fill="#F3BCA9" d="M300.626 204.62c-2.697 10.425 3.57 21.06 13.993 23.755 10.425 2.694 21.06-3.571 23.755-13.996 2.696-10.423-3.57-21.057-13.994-23.754-10.424-2.694-21.06 3.572-23.754 13.996"/>
        <path fill="#E09689" d="M315 210.528s10.683 4.421 18.082 4.472c7.396.051 5.765-5.934 5.765-5.934L316.888 206 315 210.528"/>
        <path fill="#AA459F" d="M334.863 210.924s-9.296-4.024-17.452-2.347c-1.918.395-3.695 1.442-4.93 2.988-.403.504-.914.966-1.491 1.1-1.446.334-3.814-5.785-6.625-5.924-2.81-.14-4.687 1.89-2.382 5.653 2.304 3.762 1.525 7.974.466 8.577-1.062.603-12.31-8.18-2.388-28.223 9.923-20.043 35.128-9.248 39.049-5.185 0 0 4.129 3.668 7.487.403 0 0 3.766 28.754-11.734 22.958"/>
        <path fill="#F3BCA9" d="M298.398 292.47v14.876c0 1.705.717 3.331 1.98 4.48L331 339.69l-3.479 5.31-40.44-29.272a8.2 8.2 0 0 1-3.346-5.782L281 284l17.398 8.47"/>
        <path fill="#B0B1CE" d="M285.7 246s-9.254 13.75-12.7 49.937c0 0 15.804 5.05 24.775 2.182C306.744 295.253 285.7 246 285.7 246"/>
        <path fill="#7778AB" d="M301 262s2.837 19.89 2.999 29.239c.044 2.568-1.154 4.887-2.999 5.761v-35M309.001 359.289l6.697-.88 43.221-24.87c1.386-.798 3.806-.698 5.406.223l30.627 17.616 4.048-.534v4.018h-.004c.028.529-.275 1.039-.929 1.415l-48.984 28.184c-1.385.8-3.804.697-5.405-.223l-33.354-19.185c-.9-.518-1.348-1.185-1.323-1.811v-3.953"/>
        <path fill="#263764" d="M341 343.8l3.149-1.8h34.627l17.072 9.75 4.152-.544v4.094h-.004c.028.538-.282 1.058-.953 1.44l-50.242 28.714c-.75.43-1.798.6-2.861.53L341 343.8"/>
        <path fill="#5589BB" d="M397 351.2l2-.2v3.389h-.005c.032.445-.306.875-1.033 1.193L397 356v-4.8"/>
        <path fill="#263764" d="M348 386.668c-1.144.534-2.779.418-4-.308V379h4v7.668"/>
        <path fill="#FFFFFE" d="M349.082 380.459l48.983-28.304c1.385-.8 1.211-2.2-.389-3.123l-33.352-19.268c-1.6-.923-4.02-1.024-5.406-.223l-48.983 28.304c-1.385.8-1.211 2.2.389 3.123l33.354 19.268c1.6.923 4.019 1.024 5.404.223"/>
        <path fill="#E9ECF2" d="M349.477 377.543l40.744-23.993c1.154-.678 1.01-1.864-.322-2.648l-17.88-10.254c-1.331-.784-3.345-.868-4.496-.189l-40.744 23.99c-1.154.68-1.01 1.865.322 2.649l17.88 10.255c1.33.782 3.345.867 4.496.19"/>
        <path fill="#F3BCA9" d="M363.14 328.78l.556 3.54a24.987 24.987 0 0 1-.241 9.077l-.662 3.119c-.374 1.76-1.83 3.124-3.679 3.444-1.445.251-2.808-.717-2.973-2.11l-.886-7.567s-2.027 2.536-3.006 2.536c-.978 0 1.096-7.578 3.308-11.867 2.215-4.29 7.584-.172 7.584-.172"/>
        <path fill="#F3BCA9" d="M345 274.345l5.311 10.552a20.749 20.749 0 0 1 2.175 8.01L354.792 329l6.99-.166 3.172-40.533c.098-1.252.039-2.51-.181-3.747L361.151 264 345 274.345"/>
        <path fill="#7778AB" d="M350.323 383l4.22-5.34 44.372-24.901c1.422-.797 2.574-2.936 2.572-4.776l-.04-35.21 2.553-3.229-2.398-1.346-.002.003c-.459-.286-1.07-.278-1.74.098l-50.287 28.22c-1.423.797-2.574 2.936-2.573 4.775l.043 38.347c.002 1.037.368 1.754.941 2.045l2.339 1.314"/>
        <path fill="#B0B1CE" d="M380.549 364l3.077-1.842 16.9-30.296-.02-19.898 2.494-3.358-2.341-1.4-.003.003c-.447-.298-1.044-.289-1.7.102l-49.104 29.348c-.735.437-1.393 1.268-1.852 2.234L380.549 364"/>
        <path fill="#B0B1CE" d="M402.099 310l.901-1.443-1.908-1.357-.003.003c-.364-.289-.85-.28-1.385.098l-.704.501 3.099 2.198M349.023 337c-1.075.904-1.91 2.614-2.023 4.192l4.733 2.808 2.267-4.048-4.977-2.952"/>
        <path fill="#7778AB" d="M351.55 338.586l49.85-28.285c1.412-.8 2.556.048 2.559 1.891l.041 38.435c.003 1.843-1.137 3.987-2.548 4.788L351.6 383.699c-1.41.799-2.556-.046-2.559-1.891L349 343.373c-.001-1.843 1.138-3.986 2.55-4.787"/>
        <path fill="#F3BCA9" d="M328 346.206l.777 1.608a10.773 10.773 0 0 0 4.056 4.485l4.82 2.964c1.5.923 3.398 1 4.92.114l.165-.098c1.532-.959 1.67-3.153.41-4.446l-5.037-5.166s2.83 2.162 3.622 1.293c.58-.64-2.744-3.756-5.296-3.858-2.554-.102-5.025-2.102-5.025-2.102L328 346.206"/>
        <path fill="#B0B1CE" d="M340.14 225s19.138 20.973 26.86 40.213c0 0-6.544 11.875-22.566 16.535C328.413 286.406 340.14 225 340.14 225"/>
        <path fill="#7778AB" d="M347.971 281L345 252l7 27.172a40.23 40.23 0 0 1-4.029 1.828"/>
        <path fill="#FFFFFE" d="M325.95 222.121L331 221s-2.412 3.064-5.932 3.844c-3.522.78-4.068-1.625-4.068-1.625l4.95-1.098"/>
        <path fill="#E9ECF2" d="M423 151.056c6.036 0 10.945 4.909 10.945 10.945 0 6.034-4.909 10.943-10.945 10.943-6.035 0-10.944-4.909-10.944-10.943 0-6.036 4.909-10.945 10.944-10.945zM423 176c7.72 0 14-6.281 14-14s-6.28-14-14-14c-7.718 0-14 6.281-14 14s6.282 14 14 14z"/>
        <path fill="#B0B1CE" d="M136.5 262.232c4.008 0 7.27 3.26 7.27 7.269 0 4.007-3.262 7.267-7.27 7.267-4.008 0-7.268-3.26-7.268-7.267 0-4.009 3.26-7.269 7.267-7.269zm0 17.768c5.788 0 10.5-4.71 10.5-10.5 0-5.788-4.712-10.5-10.5-10.5-5.79 0-10.5 4.712-10.5 10.5 0 5.79 4.71 10.5 10.5 10.5zM468.8 448.352l-4.153 8.447-8.446-4.15 4.152-8.448 8.446 4.15zM466.076 461L473 446.922 458.923 440 452 454.078 466.077 461zM266.8 232.352l-4.152 8.447-8.447-4.151 4.15-8.447 8.45 4.151zM264.078 245L271 230.92 256.922 224 250 238.078 264.078 245zM481 383.034l6.034 2.966 2.966-6.035-6.033-2.965-2.967 6.034"/>
        <path fill="#7C2472" d="M234.076 170.3l38.24-21.945c.757-.433 1.442-.45 1.979-.158l-.003-.025 3.708 2.132s-1.642.593-2.607.946v27.681c0 2.252-1.377 4.87-3.076 5.845l-36.55 20.976V209l-3.747-2.145.02-.007c-.634-.386-1.04-1.226-1.04-2.438v-28.265c0-2.253 1.377-4.869 3.076-5.844"/>
        <path fill="#AA459F" d="M238.049 208.634l37.9-21.91c1.686-.973 3.051-3.585 3.051-5.833v-28.216c0-2.248-1.365-3.282-3.05-2.309l-37.901 21.908c-1.684.975-3.049 3.586-3.049 5.836v28.216c0 2.248 1.365 3.281 3.049 2.308"/>
        <path fill="#FFFFFE" d="M264 177.064c0 1.73.896 2.43 2 1.565 1.104-.864 2-2.966 2-4.695 0-1.728-.896-2.428-2-1.564-1.104.865-2 2.966-2 4.694M256 181.066c0 1.728.896 2.428 2 1.564 1.103-.864 2-2.968 2-4.696 0-1.729-.897-2.428-2-1.564-1.104.864-2 2.965-2 4.696M248 187.066c0 1.728.895 2.428 2 1.564 1.104-.864 2-2.966 2-4.696 0-1.728-.896-2.428-2-1.564-1.105.864-2 2.968-2 4.696"/>
        <path fill="#B0B1CE" d="M496.012 410.936l37.425-21.585c.74-.428 1.411-.445 1.935-.157l-.003-.023 3.631 2.094-2.551.932v27.227c0 2.216-1.348 4.79-3.012 5.748l-35.772 20.634V449l-3.668-2.11.02-.007c-.619-.377-1.017-1.207-1.017-2.398v-27.802c0-2.213 1.348-4.788 3.012-5.747"/>
        <path fill="#D6DCE7" d="M500.05 448.64l37.9-21.538c1.685-.957 3.05-3.525 3.05-5.735V393.63c0-2.21-1.365-3.227-3.05-2.27l-37.9 21.537c-1.685.957-3.05 3.525-3.05 5.737v27.737c0 2.21 1.365 3.227 3.05 2.268"/>
        <path fill="#FFFFFE" d="M525 417.065c0 1.728.895 2.43 2 1.564 1.104-.864 2-2.965 2-4.694 0-1.73-.896-2.43-2-1.564-1.105.862-2 2.965-2 4.694M518 421.064c0 1.73.895 2.43 2 1.565 1.105-.863 2-2.966 2-4.693 0-1.729-.895-2.43-2-1.566-1.105.865-2 2.967-2 4.694M510 426.064c0 1.729.895 2.43 2 1.566 1.105-.865 2-2.967 2-4.695 0-1.727-.895-2.43-2-1.565-1.105.864-2 2.967-2 4.694"/>
    </g>
</svg>
