<svg xmlns="http://www.w3.org/2000/svg" xmlns:xlink="http://www.w3.org/1999/xlink" width="640" height="533" viewBox="0 0 640 533">
    <defs>
        <path id="a" d="M.095 1.84C.095.838 1.187.212 2.059.714l24.35 13.982c.404.232.653.66.653 1.125v21.36c0 1-1.092 1.626-1.964 1.125L.75 24.324a1.297 1.297 0 0 1-.655-1.126"/>
    </defs>
    <g fill="none" fill-rule="evenodd">
        <path fill="#EDE6F3" d="M608.13 227.14c19.581 10.907 34.773 31.313 31.399 52.17-4.702 29.067-41.534 46.643-46.65 75.65-4.94 28.022 21.566 52.556 25.773 80.678 4.622 30.88-19.787 60.807-50.557 73.745-30.77 12.939-66.237 12.09-99.709 7.614-33.47-4.476-66.603-12.333-100.425-12.598-36.922-.29-73.118 8.476-109.04 16.348-35.921 7.872-72.823 14.95-109.525 11.236-36.702-3.718-73.71-19.948-92.49-49.247-22.536-35.158-15.652-82.496-42.103-115.252-14.774-18.295-37.84-29.183-55.49-45.166-27.221-24.648-40.206-61.948-33.628-96.593 6.58-34.644 32.54-65.66 67.228-80.324 33.163-14.018 73.912-14.316 100.882-36.965C110.84 94.12 119.223 73.264 132.16 55.67 154.534 25.23 191.898 4.563 231.566.679c39.667-3.886 80.906 9.087 109.722 34.511 21.328 18.82 39.517 45.671 68.915 48.22 21.191 1.835 40.747-10.167 61.738-13.427 34.395-5.343 71.205 16.753 79.812 47.908 3.84 13.898.077 28.208-4.568 41.804-17.396 50.92 44.205 58.122 60.945 67.446" opacity=".436"/>
        <path fill="#CCC7DA" d="M288.67 402.4c1.333 0 2.662-.294 3.675-.882l138.306-80.526c1.788-1.04 1.99-2.651.603-3.828l-138.973 80.767c-.987.573-2.285.86-3.585.86-1.301 0-2.605-.287-3.604-.864l-43.57-25.245v2.2c0 .346-.035.69-.099 1.03.024.128.045.257.06.387l43.49 25.215c1.024.591 2.362.886 3.697.886m-51.022-31.532h.744l-14.14-8.192c-.596-.35-.938-.67-1.138-.987-1.776 1.186-1.685 2.987.274 4.12l2.424 1.405c4.787.335 8.986 1.693 11.836 3.654"/>
        <path fill="#8D8BB7" d="M222.748 358.698l4.128-2.633v.906l136.441-79.294c1.974-1.149 5.193-1.149 7.188.002l58.215 33.737v-.491l4.128 2.338v1.79h-.006c-.013.74-.497 1.477-1.468 2.04l-139.093 80.838c-1.977 1.148-5.194 1.148-7.189-.004l-60.84-35.25c-1.504-.886-1.394-1.582-1.44-2.484-.021-.402-.064-1.495-.064-1.495"/>
        <path fill="#D6DCE7" d="M370.505 275.888c-1.995-1.152-5.214-1.152-7.188-.003L224.222 356.72c-1.974 1.148-1.965 3.012.03 4.163l60.84 35.252c1.995 1.151 5.212 1.151 7.189.002l139.093-80.836c1.976-1.148 1.966-3.01-.029-4.163l-60.84-35.25"/>
        <path fill="#B0B1CE" d="M291.736 385.316c.516.297.518.783.007 1.082l-4.942 2.872c-.506.295-1.346.295-1.861-.004l-4.913-2.837c-.51-.293-.512-.779-.006-1.073l4.942-2.871c.513-.3 1.351-.3 1.86-.006l4.913 2.837m9.116-5.298c.518.298.521.783.013 1.076l-6.372 3.705c-.512.299-1.351.299-1.868 0l-4.912-2.835c-.51-.295-.513-.78.002-1.08l6.372-3.703c.506-.294 1.344-.294 1.854 0l4.911 2.837m9.13-5.307c.519.298.521.784.007 1.082l-6.372 3.704c-.505.293-1.345.293-1.86-.004l-4.912-2.837c-.51-.295-.514-.78-.006-1.073l6.372-3.704c.513-.3 1.35-.3 1.861-.004l4.91 2.836m9.12-5.3c.515.3.525.781.011 1.079l-6.371 3.703c-.514.3-1.346.295-1.861-.004l-4.913-2.836c-.51-.294-.519-.774-.007-1.073l6.372-3.703c.515-.298 1.345-.294 1.855 0l4.913 2.835m9.13-5.305c.516.297.519.783.012 1.077l-6.37 3.704c-.515.298-1.353.298-1.87 0l-4.912-2.836c-.509-.295-.511-.78 0-1.078l6.374-3.704c.507-.295 1.343-.295 1.854 0l4.913 2.837m45.638-26.525c.517.3.526.78.013 1.079l-42.895 24.928c-.513.299-1.344.295-1.861-.004l-4.91-2.837c-.512-.293-.521-.774-.007-1.073l42.894-24.928c.514-.299 1.344-.295 1.855 0l4.911 2.835m9.13-5.306c.518.298.52.783.007 1.082l-6.372 3.704c-.506.295-1.343.295-1.861-.004l-4.912-2.837c-.51-.293-.513-.78-.007-1.074l6.373-3.703c.514-.298 1.35-.298 1.861-.004l4.912 2.836m9.117-5.3c.517.3.526.781.013 1.08l-6.372 3.703c-.514.298-1.345.294-1.862-.005l-4.911-2.835c-.51-.295-.52-.775-.005-1.074l6.37-3.702c.514-.3 1.345-.295 1.854 0l4.913 2.834m9.22-5.357c.516.297.519.784.004 1.082l-6.37 3.703c-.507.295-1.345.295-1.862-.004l-4.912-2.837c-.509-.293-.511-.78-.006-1.074l6.372-3.703c.514-.299 1.351-.299 1.861-.004l4.913 2.837m9.117-5.299c.515.3.526.78.013 1.078l-6.373 3.702c-.514.3-1.344.295-1.861-.004l-4.913-2.835c-.51-.295-.518-.775-.005-1.074l6.372-3.702c.514-.299 1.344-.295 1.853 0l4.914 2.835m-123.278 62.913c.509.294.512.78-.001 1.079l-6.373 3.703c-.506.293-1.344.293-1.853 0l-4.913-2.837c-.516-.299-.518-.784-.013-1.077l6.372-3.704c.514-.3 1.352-.3 1.868 0l4.913 2.836m9.116-5.298c.51.295.52.775.006 1.073l-6.372 3.703c-.513.3-1.344.295-1.855 0l-4.91-2.836c-.518-.298-.527-.778-.013-1.077l6.372-3.703c.513-.298 1.343-.294 1.86.003l4.912 2.837m9.13-5.306c.51.294.513.78.007 1.074l-6.372 3.703c-.513.298-1.351.298-1.862.004l-4.91-2.836c-.518-.3-.521-.785-.007-1.082l6.373-3.704c.505-.295 1.343-.295 1.86.004l4.911 2.837m9.124-5.304c.51.295.513.78-.001 1.078l-6.371 3.704c-.513.299-1.345.295-1.854 0l-4.913-2.837c-.517-.297-.526-.778-.013-1.077l6.373-3.704c.514-.298 1.35-.298 1.867 0l4.912 2.836m9.125-5.3c.51.293.518.773.004 1.072l-6.37 3.705c-.514.296-1.345.292-1.854 0l-4.913-2.837c-.516-.299-.526-.78-.013-1.078l6.372-3.703c.514-.299 1.344-.295 1.861.004l4.913 2.836m9.123-5.303c.51.295.513.78 0 1.078l-6.372 3.703c-.508.295-1.345.295-1.855 0l-4.91-2.836c-.519-.298-.522-.784-.015-1.079l6.374-3.703c.511-.297 1.35-.297 1.866 0l4.912 2.837m9.145-5.314c.509.293.52.776.006 1.074l-6.372 3.703c-.515.298-1.346.295-1.855 0l-4.912-2.836c-.517-.298-.526-.78-.013-1.078l6.373-3.704c.514-.299 1.343-.295 1.86.004l4.913 2.837m9.123-5.303c.51.294.512.78.007 1.073l-6.372 3.704c-.515.299-1.351.299-1.862.004l-4.911-2.834c-.517-.3-.52-.785-.007-1.084l6.371-3.703c.508-.294 1.346-.294 1.861.004l4.913 2.836m9.13-5.306c.511.294.514.78 0 1.077l-6.373 3.705c-.505.295-1.343.295-1.853 0l-4.912-2.837c-.517-.297-.52-.783-.013-1.078l6.372-3.703c.513-.298 1.351-.298 1.867 0l4.913 2.836m9.117-5.3c.51.296.52.777.005 1.075l-6.37 3.703c-.515.299-1.346.295-1.854 0l-4.913-2.835c-.517-.299-.526-.78-.013-1.078l6.372-3.705c.513-.297 1.343-.293 1.861.004l4.912 2.837m13.203-7.673c.509.295.512.78.006 1.074l-10.444 6.07c-.515.299-1.353.299-1.862.005l-4.911-2.838c-.517-.296-.52-.782-.007-1.08l10.445-6.07c.506-.295 1.344-.295 1.861.002l4.912 2.837m6.652-3.867c.51.295.52.776.006 1.075l-3.77 2.191c-.514.3-1.352.3-1.86.004l-4.914-2.836c-.515-.298-.518-.783-.006-1.082l3.772-2.19c.513-.3 1.343-.296 1.861.003l4.91 2.835m6.668-3.872c.509.293.513.778 0 1.076l-3.6 2.093c-.514.299-1.351.299-1.861.004l-4.913-2.837c-.516-.297-.52-.783-.006-1.082l3.6-2.091c.513-.299 1.353-.299 1.868 0l4.912 2.837m10.062-5.848c.51.293.518.775.007 1.073l-7.27 4.225c-.514.298-1.352.298-1.86.004l-4.912-2.837c-.519-.299-.521-.784-.007-1.082l7.268-4.225c.514-.298 1.346-.292 1.862.004l4.912 2.838m14.929.054c.516.3.526.781.013 1.079l-4.826 2.805c-.513.297-1.343.294-1.86-.005l-12.45-7.188c-.517-.298-.526-.78-.013-1.078l4.825-2.805c.514-.298 1.345-.294 1.86.004l12.45 7.188M285.582 371.35c.51.294.518.775.005 1.074l-13.935 8.099c-.507.295-1.345.295-1.855 0l-4.91-2.837c-.517-.297-.521-.784-.014-1.077l13.936-8.1c.513-.298 1.344-.294 1.86.005l4.913 2.836m9.26-5.382c.51.294.512.78 0 1.078l-6.373 3.704c-.507.293-1.345.293-1.854 0l-4.913-2.837c-.515-.299-.52-.783-.011-1.077l6.37-3.704c.514-.3 1.353-.3 1.868 0l4.913 2.836m9.117-5.298c.51.295.519.775.006 1.073l-6.372 3.704c-.513.3-1.345.294-1.855 0l-4.913-2.836c-.516-.298-.525-.78-.012-1.078l6.374-3.704c.511-.297 1.343-.293 1.86.004l4.912 2.837m9.13-5.308c.51.295.513.781.006 1.076l-6.372 3.703c-.513.298-1.35.298-1.86.004l-4.913-2.836c-.517-.3-.52-.785-.007-1.082l6.374-3.704c.505-.295 1.343-.295 1.861.004l4.91 2.835m9.125-5.3c.51.293.513.779 0 1.076l-6.373 3.704c-.514.298-1.344.295-1.854 0l-4.912-2.836c-.516-.299-.526-.779-.013-1.078l6.372-3.703c.514-.298 1.351-.298 1.868 0l4.912 2.836m9.144-5.314c.51.293.52.776.006 1.073l-6.373 3.704c-.513.297-1.343.295-1.853 0l-4.912-2.836c-.517-.298-.527-.78-.013-1.078l6.372-3.703c.513-.299 1.345-.295 1.862.004l4.911 2.836m9.124-5.303c.51.295.512.78.005 1.074l-6.377 3.707c-.508.295-1.346.295-1.855 0l-4.913-2.836c-.515-.298-.518-.783-.013-1.078l6.38-3.708c.507-.293 1.343-.293 1.862.004l4.911 2.837m9.13-5.306c.51.293.512.779 0 1.078l-6.372 3.703c-.514.298-1.344.295-1.854 0l-4.912-2.836c-.517-.298-.526-.78-.013-1.077l6.372-3.705c.513-.299 1.351-.299 1.868 0l4.912 2.837m9.117-5.299c.51.295.513.78.006 1.073l-6.373 3.704c-.512.298-1.351.298-1.861.005l-4.91-2.837c-.518-.297-.522-.783-.007-1.082l6.372-3.703c.506-.294 1.344-.294 1.86.004l4.913 2.836m9.13-5.306c.51.294.513.78-.001 1.078l-6.372 3.704c-.505.293-1.345.293-1.854 0l-4.912-2.837c-.516-.298-.52-.784-.013-1.078l6.373-3.703c.513-.3 1.35-.3 1.866 0l4.913 2.836m9.116-5.298c.51.294.521.775.007 1.073l-6.371 3.703c-.514.299-1.346.295-1.855 0l-4.912-2.835c-.518-.3-.526-.78-.013-1.078l6.373-3.704c.513-.297 1.343-.293 1.86.004l4.911 2.837m11.254-6.541c.51.295.512.78 0 1.08l-8.407 4.884c-.506.294-1.343.294-1.853 0l-4.912-2.837c-.517-.299-.52-.783-.013-1.077l8.404-4.885c.513-.298 1.351-.298 1.868 0l4.913 2.835m9.91-5.712c.517.3.52.776.006 1.075l-6.885 4.001c-.514.299-1.343.303-1.861.004l-4.912-2.836c-.517-.297-.512-.778 0-1.077l6.887-4.001c.513-.3 1.336-.3 1.855 0l4.91 2.834m-126.09 64.517c.515.299.52.783.006 1.08l-7.92 4.605c-.505.293-1.343.293-1.86-.004l-4.912-2.837c-.51-.295-.513-.78-.007-1.074l7.92-4.603c.514-.297 1.35-.297 1.86-.003l4.913 2.836m9.117-5.298c.517.297.526.779.013 1.078l-6.372 3.703c-.513.298-1.345.294-1.862-.004l-4.911-2.836c-.51-.295-.52-.777-.007-1.075l6.372-3.703c.513-.299 1.345-.295 1.854 0l4.913 2.837m9.13-5.308c.517.3.52.785.013 1.078l-6.372 3.704c-.513.299-1.351.299-1.868 0l-4.912-2.837c-.51-.292-.513-.778 0-1.077l6.373-3.703c.506-.294 1.344-.294 1.855 0l4.911 2.835m9.124-5.3c.517.297.52.782.005 1.08l-6.37 3.705c-.515.297-1.346.293-1.862-.004l-4.913-2.837c-.508-.295-.518-.776-.005-1.074l6.372-3.703c.513-.3 1.351-.3 1.861-.004l4.912 2.836m9.124-5.303c.515.299.526.78.013 1.078l-6.372 3.703c-.515.299-1.346.295-1.862-.004l-4.911-2.836c-.51-.294-.52-.774-.007-1.073l6.372-3.705c.513-.297 1.345-.292 1.854 0l4.913 2.837m9.124-5.301c.517.297.52.782.006 1.08l-6.373 3.705c-.507.294-1.343.294-1.862-.004l-4.91-2.836c-.51-.295-.513-.78-.007-1.075l6.373-3.703c.513-.299 1.35-.299 1.86-.004l4.913 2.837m9.143-5.316c.517.3.526.78.015 1.077l-6.373 3.705c-.514.299-1.344.294-1.862-.005l-4.912-2.834c-.51-.295-.518-.777-.007-1.076l6.373-3.702c.514-.299 1.345-.295 1.854 0l4.912 2.835m9.124-5.302c.518.298.52.783.013 1.078l-6.372 3.704c-.515.297-1.351.297-1.868 0l-4.912-2.837c-.509-.295-.513-.78.001-1.078l6.371-3.703c.507-.295 1.346-.295 1.857 0l4.91 2.836m9.13-5.307c.519.299.521.784.007 1.083l-6.372 3.702c-.506.295-1.345.295-1.862-.003l-4.911-2.836c-.51-.295-.513-.78-.006-1.074l6.373-3.704c.511-.297 1.35-.297 1.861-.004l4.91 2.836m9.118-5.297c.517.297.526.779.013 1.077l-6.371 3.704c-.515.298-1.346.295-1.862-.005l-4.913-2.835c-.509-.294-.518-.777-.006-1.075l6.373-3.703c.513-.297 1.344-.295 1.854 0l4.912 2.837m9.131-5.308c.516.3.519.785.012 1.08l-6.37 3.703c-.515.297-1.353.297-1.87 0l-4.912-2.837c-.509-.295-.511-.779 0-1.078l6.374-3.703c.506-.295 1.343-.295 1.853 0l4.913 2.835m-92.778 45.204c.509.295.518.776.004 1.075l-13.934 8.099c-.507.293-1.345.293-1.855 0l-4.912-2.837c-.517-.299-.52-.783-.013-1.077l13.935-8.1c.515-.298 1.345-.294 1.862.006l4.913 2.834m9.26-5.382c.51.295.512.78-.002 1.078l-6.371 3.703c-.506.295-1.344.295-1.853 0l-4.914-2.836c-.516-.298-.519-.782-.013-1.077l6.373-3.705c.514-.297 1.35-.297 1.868 0l4.911 2.837m9.118-5.297c.509.294.52.774.006 1.073l-6.372 3.703c-.514.299-1.345.295-1.855 0l-4.912-2.835c-.517-.299-.526-.78-.013-1.078l6.373-3.704c.513-.298 1.344-.295 1.86.004l4.913 2.837m9.13-5.308c.51.295.512.781.007 1.075l-6.373 3.703c-.514.299-1.35.299-1.861.004l-4.913-2.837c-.516-.297-.518-.783-.004-1.082l6.371-3.703c.506-.294 1.344-.294 1.861.004l4.912 2.836m9.124-5.3c.51.292.513.777-.001 1.076l-6.373 3.704c-.513.297-1.343.293-1.855 0l-4.91-2.836c-.517-.3-.527-.78-.013-1.078l6.372-3.703c.513-.299 1.351-.299 1.867 0l4.913 2.836m9.145-5.315c.51.295.518.776.005 1.074l-6.373 3.704c-.513.297-1.343.293-1.853 0L303.177 338c-.516-.299-.526-.78-.012-1.077l6.371-3.703c.515-.299 1.346-.295 1.862.004l4.913 2.835m9.122-5.302c.51.294.514.78.007 1.074l-6.38 3.707c-.506.295-1.344.295-1.854 0l-4.912-2.836c-.517-.298-.52-.785-.013-1.078l6.38-3.708c.506-.295 1.343-.295 1.862.004l4.91 2.837m9.132-5.306c.509.293.513.779-.002 1.078l-6.37 3.703c-.515.298-1.346.294-1.855 0l-4.912-2.836c-.518-.3-.526-.78-.014-1.077l6.373-3.705c.513-.299 1.35-.299 1.868 0l4.912 2.837m9.117-5.299c.51.294.512.78.007 1.073l-6.374 3.704c-.513.298-1.351.298-1.86.005l-4.913-2.837c-.516-.297-.52-.784-.007-1.082l6.373-3.703c.506-.295 1.344-.295 1.861.004l4.913 2.836m9.13-5.307c.51.295.512.78 0 1.08l-6.373 3.701c-.507.295-1.343.295-1.854 0l-4.913-2.835c-.515-.299-.52-.784-.011-1.078l6.37-3.703c.515-.3 1.353-.3 1.868 0l4.913 2.835m25.86-6.311c.516.297.519.783.006 1.082l-12.608 7.327c-.514.296-1.344.293-1.861-.006l-4.912-2.835c-.509-.294-.52-.777-.005-1.074l5.311-3.086-6.594-3.808c-.516-.299-.518-.783-.013-1.077l6.372-3.704c.514-.299 1.352-.299 1.868 0l7.523 4.344 1.8 1.038 3.112 1.799m-16.743 1.013c.51.293.521.776.007 1.074l-6.372 3.703c-.513.299-1.345.295-1.855 0l-4.91-2.836c-.519-.298-.528-.778-.014-1.077l6.373-3.704c.511-.299 1.343-.293 1.858.004l4.913 2.836m28.728-7.883c.51.293.52.775.007 1.073l-6.887 4.002c-.512.299-1.35.299-1.859.004l-4.913-2.836c-.515-.298-.518-.784-.006-1.082l6.886-4.002c.513-.297 1.345-.295 1.86.004l4.912 2.837m15.067-.09c.515.3.518.776.005 1.076l-4.824 2.804c-.514.3-1.338.3-1.855 0l-12.395-7.156c-.515-.298-.526-.78-.012-1.078l4.826-2.805c.513-.298 1.343-.295 1.861.004l12.394 7.156m-24.54-3.17c.516.298.512.78-.002 1.079l-6.884 4c-.514.3-1.339.3-1.855 0l-4.911-2.836c-.517-.298-.52-.774-.007-1.073l6.887-4.002c.511-.299 1.343-.303 1.86-.004l4.912 2.836m9.494-5.517c.516.299.518.777.004 1.074l-6.884 4.002c-.514.298-1.338.298-1.855 0l-4.912-2.836c-.516-.298-.52-.777-.005-1.074l6.886-4.003c.512-.297 1.336-.297 1.853 0l4.913 2.837m-132.266 68.08c.516.298.512.78.006 1.075l-6.371 3.703c-.515.298-1.346.302-1.862.004l-4.913-2.836c-.515-.3-.511-.78.002-1.078l6.372-3.704c.506-.295 1.336-.299 1.855 0l4.911 2.836m9.118-5.298c.515.298.518.776.005 1.073l-6.372 3.704c-.515.299-1.337.299-1.854 0l-4.913-2.837c-.515-.297-.518-.775-.005-1.073l6.372-3.703c.513-.298 1.338-.298 1.854 0l4.913 2.836m9.13-5.307c.517.299.52.775.005 1.074l-6.372 3.705c-.513.296-1.343.301-1.861.004l-4.91-2.837c-.518-.299-.514-.78 0-1.08l6.37-3.701c.515-.3 1.34-.3 1.855 0l4.913 2.835m9.123-5.302c.518.299.513.78 0 1.078l-6.373 3.703c-.506.295-1.338.3-1.853 0l-4.912-2.836c-.518-.298-.513-.778-.006-1.073l6.372-3.704c.513-.297 1.343-.304 1.861-.003l4.91 2.835m9.126-5.303c.515.3.52.776.006 1.075l-6.372 3.703c-.514.298-1.34.298-1.855 0l-4.912-2.837c-.516-.297-.52-.775-.006-1.074l6.372-3.702c.515-.299 1.337-.299 1.855 0l4.912 2.835m9.124-5.302c.515.298.511.78.005 1.074l-6.373 3.704c-.512.299-1.343.301-1.86.004l-4.913-2.837c-.516-.297-.511-.778.002-1.078l6.372-3.703c.507-.294 1.338-.3 1.854 0l4.913 2.836m9.15-5.318c.516.298.513.78 0 1.078l-6.373 3.704c-.506.293-1.338.297-1.853 0l-4.913-2.837c-.516-.299-.513-.78-.007-1.073l6.374-3.704c.513-.3 1.343-.303 1.86-.004l4.912 2.836m9.117-5.298c.517.299.52.775.006 1.073l-6.372 3.703c-.514.299-1.338.299-1.855 0l-4.911-2.836c-.517-.298-.52-.774-.007-1.073l6.372-3.704c.515-.297 1.338-.297 1.855 0l4.912 2.837m9.13-5.306c.517.297.513.779.007 1.073l-6.373 3.704c-.513.298-1.344.302-1.86.004l-4.913-2.836c-.517-.3-.513-.78.002-1.079l6.37-3.703c.507-.295 1.339-.299 1.855 0l4.912 2.837m9.118-5.3c.516.299.519.777.005 1.074l-6.373 3.704c-.513.299-1.336.299-1.852 0l-4.913-2.837c-.517-.298-.52-.774-.005-1.073l6.371-3.704c.513-.297 1.338-.298 1.855 0l4.912 2.836m9.13-5.305c.517.298.52.774.005 1.073l-6.372 3.703c-.512.298-1.343.303-1.86.006l-4.912-2.837c-.518-.299-.513-.78 0-1.078l6.372-3.703c.513-.3 1.338-.3 1.855 0l4.912 2.836m9.124-5.303c.517.299.511.78 0 1.078l-6.373 3.703c-.507.295-1.337.299-1.854 0l-4.912-2.836c-.517-.298-.513-.78-.007-1.075l6.373-3.703c.514-.298 1.344-.301 1.861-.004l4.912 2.837m24.29-14.118c.518.298.52.776.007 1.075l-21.492 12.49c-.512.298-1.337.298-1.854 0l-4.913-2.837c-.515-.298-.518-.774-.005-1.073l21.491-12.49c.515-.299 1.338-.299 1.855 0l4.912 2.835M247.904 358.35c.516.3.52.785.007 1.084l-6.373 3.703c-.508.294-1.344.294-1.861-.004l-4.913-2.836c-.51-.295-.512-.781-.004-1.075l6.37-3.703c.514-.299 1.352-.299 1.86-.004l4.914 2.835m9.117-5.298c.517.298.525.78.013 1.078l-6.373 3.703c-.513.3-1.343.295-1.86-.004l-4.912-2.836c-.51-.294-.52-.775-.007-1.073l6.371-3.705c.515-.296 1.346-.293 1.855 0l4.913 2.837m9.13-5.305c.518.298.52.782.014 1.077l-6.373 3.705c-.513.296-1.35.296-1.867 0l-4.912-2.838c-.51-.294-.513-.78 0-1.077l6.372-3.703c.507-.295 1.345-.295 1.855 0l4.91 2.836m9.119-5.3c.516.298.526.781.012 1.079l-6.371 3.703c-.515.299-1.346.295-1.862-.004l-4.913-2.837c-.51-.293-.518-.774-.006-1.074l6.373-3.703c.513-.298 1.344-.295 1.854 0l4.913 2.836m9.13-5.306c.516.3.526.78.013 1.078l-6.372 3.704c-.514.297-1.346.293-1.861-.004l-4.913-2.837c-.51-.295-.518-.775-.006-1.073l6.373-3.703c.513-.299 1.343-.295 1.853 0l4.913 2.835m9.124-5.302c.516.299.518.784.005 1.082l-6.372 3.703c-.506.295-1.343.295-1.861-.004l-4.912-2.836c-.509-.294-.512-.78-.005-1.074l6.37-3.704c.515-.297 1.353-.297 1.862-.003l4.913 2.836m9.145-5.314c.515.298.525.778.012 1.078l-6.373 3.703c-.513.298-1.343.294-1.861-.003l-4.912-2.837c-.509-.295-.52-.777-.005-1.074l6.371-3.704c.514-.298 1.346-.295 1.855 0l4.913 2.837m9.122-5.304c.517.3.521.785.013 1.079l-6.372 3.703c-.514.299-1.35.299-1.868 0l-4.911-2.835c-.51-.295-.513-.78 0-1.079l6.373-3.703c.505-.293 1.343-.293 1.854 0l4.911 2.835m9.13-5.304c.519.297.522.781.007 1.08l-6.372 3.704c-.508.295-1.344.295-1.861-.004l-4.912-2.836c-.51-.295-.513-.78-.005-1.074l6.372-3.703c.512-.299 1.351-.299 1.861-.004l4.91 2.837m9.117-5.3c.518.299.527.78.014 1.078l-6.373 3.703c-.512.3-1.344.295-1.86-.004l-4.912-2.835c-.51-.295-.52-.776-.007-1.075l6.373-3.704c.513-.297 1.344-.292 1.854 0l4.91 2.837m9.132-5.306c.517.297.52.783.014 1.078l-6.371 3.703c-.515.298-1.353.298-1.87 0l-4.911-2.836c-.51-.295-.513-.78 0-1.077l6.372-3.705c.508-.293 1.344-.293 1.855 0l4.911 2.837m9.118-5.299c.517.3.526.78.013 1.079l-6.372 3.703c-.515.299-1.345.295-1.862-.004l-4.913-2.835c-.509-.295-.518-.777-.004-1.076l6.371-3.703c.513-.298 1.345-.294 1.854 0l4.913 2.836m9.219-5.357c.517.298.52.782.013 1.077l-6.372 3.703c-.513.3-1.351.3-1.867 0l-4.913-2.835c-.51-.295-.512-.78 0-1.078l6.374-3.703c.506-.295 1.343-.295 1.853 0l4.912 2.836m9.117-5.3c.516.3.526.781.013 1.079l-6.372 3.703c-.514.299-1.344.295-1.861-.004l-4.912-2.836c-.51-.294-.52-.774-.005-1.075l6.37-3.703c.515-.297 1.346-.294 1.854 0l4.913 2.837m4.027-8.03c-.51-.296-1.342-.3-1.854 0l-6.372 3.702c-.514.298-.505.78.005 1.075l4.913 2.836c.516.298 1.347.302 1.86.004l6.373-3.704c.514-.3.504-.78-.012-1.077l-4.913-2.837"/>
        <path fill="#CCC7DA" d="M242.24 339.59c.848 0 1.693-.187 2.337-.561l90.694-52.708c1.288-.748 1.282-1.964-.02-2.715l-19.345-10.664c-.65-.376-1.5-.564-2.348-.564-.849 0-1.694.188-2.338.563l-90.694 52.708c-1.288.748-1.28 1.965.02 2.715l19.344 10.663c.65.376 1.5.563 2.35.563"/>
        <path fill="#8D8BB7" d="M314.678 272.078c-1.259-.727-3.29-.727-4.536-.002L221.45 321.3s-.003 2.616 0 3.091c.004.475.32.95.95 1.316l18.718 10.317c1.26.727 3.29.727 4.536.003l87.762-51.005c.623-.363.933-.838.93-1.313-.003-.474-.062-3.274-.062-3.274l-19.606-8.358"/>
        <path fill="#D6DCE7" d="M314.678 269.158c-1.259-.727-3.29-.727-4.536-.001L222.38 320.16c-1.247.723-1.24 1.9.02 2.627l18.717 10.318c1.26.726 3.29.726 4.536.003l87.762-51.005c1.247-.723 1.24-1.9-.018-2.626l-18.72-10.319"/>
        <path fill="#8D8BB7" d="M184.078 190.826l171.743-99.16c1.275-.737 2.417-.768 3.228-.246l.016-.009 3.425 2.035-2.224 1.295.377 132.885c.008 2.812-1.966 6.23-4.413 7.644l-170.724 98.573 2.084 1.238-2.834 1.65-3.48-2.03.025-.014c-.766-.474-1.254-1.416-1.258-2.785l-.377-133.432c-.008-2.813 1.964-6.23 4.412-7.644"/>
        <path fill="#8D8BB7" d="M252.209 279.978v31.726l3.083 1.668 37.012-23.566V255.95l-40.095 24.028"/>
        <path fill="#B0B1CE" d="M255.292 280.49v32.882l40.095-23.054v-33.855l-40.095 24.027"/>
        <path fill="#D6DCE7" d="M188.198 192.885c-2.447 1.412-4.42 4.831-4.413 7.644l.379 133.43c.008 2.812 1.994 3.945 4.44 2.532L360.35 237.33c2.447-1.412 4.421-4.831 4.413-7.644l-.378-133.43c-.008-2.812-1.995-3.945-4.44-2.532l-171.746 99.162"/>
        <path fill="#FAF9F7" d="M359.388 216.07c.012 3.277-2.309 7.274-5.157 8.913l-159.6 92.153c-2.848 1.652-5.17.329-5.18-2.949l-.29-105.468c-.014-3.291 2.294-7.275 5.142-8.928l159.6-92.152c2.849-1.64 5.181-.328 5.181 2.963l.304 105.468"/>
        <path fill="#E9ECF2" d="M215.21 292.709c.612 0 1.238-.155 1.828-.499l120.259-69.838a3.648 3.648 0 0 0 1.817-3.152l.103-85.079c.002-2.133-1.748-3.66-3.656-3.66-.609 0-1.232.155-1.821.496l-120.261 69.559a3.652 3.652 0 0 0-1.824 3.156l-.099 85.358c-.002 2.133 1.748 3.659 3.655 3.659m4.208-7.866l-.176.102.094-77.722.951-.546v.01l115.763-67.228v.475-.001l-.065 54.252v.351l-.027 22.639-2.137 1.24-.435.451-.165-.101-113.803 66.087v-.009m.775-1.485l10.624-6.17.012-9.926-10.624 6.169-.012 9.927m11.577-6.724l10.625-6.17.011-9.926-10.623 6.17-.013 9.926m-11.564-4.25l10.624-6.17.013-9.924-10.624 6.17-.013 9.924m23.142-2.473l10.623-6.17.012-9.926-10.624 6.17-.011 9.926m-11.564-4.25l10.624-6.17.012-9.925-10.624 6.17-.012 9.925m23.14-2.472l10.624-6.17.013-9.926-10.625 6.169-.012 9.927m-34.703-1.777l10.623-6.169.012-9.925-10.623 6.17-.012 9.924m23.14-2.473l10.623-6.17.013-9.925-10.625 6.169-.011 9.926m23.138-2.473l10.626-6.171.012-9.926-10.626 6.17-.012 9.927m-34.702-1.776l10.624-6.17.013-9.925-10.625 6.17-.012 9.925m23.14-2.475l10.625-6.169.012-9.926-9.688 5.626-.889 1.875-.05-.053-.01 8.647m-34.703-1.773l10.623-6.17.012-9.927-10.623 6.17-.012 9.927m57.842-.7l10.625-6.168.011-9.926-10.625 6.169-.011 9.926m-34.702-1.777l10.13-5.882-6.164-6.338-3.955 2.296-.011 9.924m23.138-2.472l10.626-6.172.012-9.924-10.626 6.17-.012 9.926m-34.702-1.775l10.625-6.17.008-6.84-1.917-1.97-8.703 5.052-.013 9.928m57.843-.699l10.624-6.17.012-9.926-10.624 6.17-.012 9.926m-33.083-2.717l9.005-5.23.012-9.924-2.526 1.467-6.491 13.687m-2.57-.247l.01-8.185-5.17 3.003 5.16 5.182m-33.753-.588l10.624-6.169.011-9.924-10.623 6.169-.012 9.924m34.706-.421l5.18-10.731-5.17 3.003-.01 7.728m23.136-.277l10.625-6.169.011-9.926-10.623 6.17-.013 9.925m-34.702-1.774l3.303-1.919-3.297-3.39-.006 5.31m57.843-.7l10.623-6.17.012-9.925-10.623 6.169-.012 9.925m-34.705-1.775l10.626-6.17.012-9.925-10.625 6.17-.013 9.925m-18.344-.31l5.83-3.385.012-9.926-10.623 6.169-.003 2.338 4.784 4.805m-16.356-1.466l8.05-4.676-6.163-6.338-1.876 1.09-.011 9.924m57.841-.698l10.624-6.17.012-9.925-10.624 6.169-.012 9.926m-34.702-1.776l5.87-3.41 4.762-9.862.004-2.824-10.624 6.17-.012 9.926m57.84-.697l10.626-6.17.012-9.926-10.625 6.17-.013 9.926m-92.544-1.078l10.624-6.17.005-3.499-3.992-4.104-6.625 3.847-.012 9.926m22.186-.044v-.83l-.524.304.524.526m35.657-.654l10.624-6.17.011-9.925-10.623 6.169-.012 9.926m-36.84-.534l1.185-.69.012-9.924-7.454 4.33 6.257 6.284m2.138-1.243l10.624-6.169.011-9.924-10.623 6.169-.012 9.924m57.842-.698l10.623-6.17.012-9.925-10.623 6.169-.012 9.926m-37.498-.15l1.843-1.07.003-2.825-1.846 3.895m2.795-1.624l10.625-6.17.011-9.926-6.941 4.03-3.69 7.784-.005 4.282m57.841-.698l7.969-4.628-7.957-4.937-.012 9.565m-92.543-1.079l1.224-.71-1.222-1.257-.002 1.967m57.841-.698l7.45-4.325-6.938-5.89-.498.29-.014 9.925m-55.334-.757l8.116-4.714.012-9.925-10.624 6.17-.006 5.956 2.502 2.513m20.633-1.018l10.623-6.17.012-9.924-10.624 6.17-.011 9.924m57.84-.697l10.404-6.043-8.257-5.123-2.135 1.24-.012 9.926m-92.545-1.077l5.974-3.47-5.93-6.1 1.086-.634 6.024 6.049 3.47-2.016.013-9.79-10.624 6.168-.013 9.793m113.292-.008l1.44-.836.012-9.925-9.61 5.58 8.158 5.18m-102.674-.667l.006-4.448-2.81 1.632 2.804 2.816m47.225-.023l10.624-6.17.001-1.027-6.22-5.28-4.393 2.552-.012 9.925m20.31-.83l1.877-1.091.003-1.898-1.88 2.99m-1.16-.64l3.042-4.84.007-5.537-9.057 5.26 6.008 5.118m-53.852-.308l10.624-6.17.011-9.925-10.623 6.17-.012 9.925m23.136-.026l.939-1.945-.938.544v1.4m34.705-.672l10.623-6.169.004-2.658-4.941-3.065-5.682 9.031-.004 2.861m-34.703-1.775l1.636-.95 6.653-13.78-8.278 4.806-.011 9.924m57.994-.786l10.471-6.081.013-9.926-10.624 6.17-.011 9.74.151.097m-1.103-.7l.01-8.584-7.066 4.104 7.056 4.48m-91.593-.289l10.623-6.169.012-9.793-10.623 6.17-.012 9.792m39.07-.761l6.257-3.634.007-6.587-1.011-.859-5.254 11.08m19.608-.422l9.788-5.684.012-9.926-10.622 6.169-.01 8.733.832.708m10.734-.62l4.524-7.195-4.517 2.623-.007 4.572m-46.271-.67l10.623-6.17.012-9.925-10.624 6.169-.011 9.925m33.751-.228l.01-7.369-5.149 2.99 5.14 4.379m24.088-.469l1.264-.733-1.263-.783-.001 1.516m2.698-1.566l7.927-4.604.012-9.926-10.625 6.17-.008 6.649 2.694 1.71m-37.4-.21l3.661-2.126-3.654-3.101-.007 5.228m-34.702-1.775l10.624-6.17.012-9.792-10.624 6.169-.012 9.793m68.458-.33l.006-5.492-4.521 2.626 4.515 2.867m-10.615-.37l10.623-6.169.011-9.926-10.622 6.17-.012 9.925m-18.398-.282l5.88-3.415.012-9.924-10.623 6.17-.004 3.137 4.735 4.032m-16.306-1.493l10.625-6.17.011-9.926-10.623 6.17-.013 9.926m57.843-.698l10.622-6.17.013-9.925-10.623 6.169-.012 9.926m-34.702-1.777l10.622-6.169.012-9.924-10.622 6.169-.012 9.924m-12.519-.873l.001-1.776-1.24.721 1.239 1.055m-22.184-.901l10.623-6.17.012-9.792-10.622 6.17-.013 9.792m57.84-.698l10.625-6.17.013-9.926-10.626 6.17-.012 9.926m-34.702-1.776l10.624-6.17.013-9.926-10.624 6.17-.013 9.926m23.141-2.474l10.623-6.17.013-9.924-10.624 6.17-.012 9.924m-34.703-1.774l10.624-6.17.011-9.793-10.623 6.17-.012 9.793m57.842-.699l10.623-6.17.012-9.925-10.623 6.17-.012 9.925m-34.702-1.776l10.622-6.17.013-9.925-10.623 6.169-.012 9.926m23.137-2.474l10.626-6.17.012-9.925-10.625 6.17-.013 9.925m-34.7-1.775l10.623-6.17.012-9.79-10.624 6.168-.011 9.792m23.14-2.474l10.623-6.169.012-9.926-10.624 6.17-.012 9.925m23.139-2.473l10.623-6.17.012-9.924-10.623 6.17-.012 9.924m-34.702-1.776l10.624-6.169.011-9.792-10.623 6.169-.012 9.792m23.138-2.473l10.625-6.17.012-9.926-10.625 6.17-.012 9.926m-11.562-4.25l10.624-6.17.012-9.79-10.624 6.168-.012 9.793m23.139-2.474l10.624-6.17.011-9.924-10.623 6.169-.012 9.925m-11.563-4.249l10.624-6.17.012-9.791-10.625 6.169-.011 9.792m11.576-6.722l10.624-6.17.011-9.792-10.623 6.17-.012 9.792"/>
        <path fill="#F4F5F7" d="M220.234 251.488l10.623-6.17.001-1.046-10.623 6.17-.001 1.046m11.576-6.724l10.625-6.169.001-1.047-10.625 6.17-.001 1.046m11.576-6.722l3.955-2.296-.65-.669-3.303 1.92-.002 1.045m5.455-3.168l5.17-3.003.002-1.045-5.831 3.386.66.662m6.122-3.555l5.17-3.003.701-1.453-5.87 3.41v1.046m8.097-4.703l2.526-1.467.001-1.046-1.843 1.07-.684 1.443m3.477-2.02l10.625-6.17.002-1.046-10.625 6.17-.002 1.047m11.577-6.724l10.623-6.169.002-1.047-10.624 6.17-.001 1.046m11.578-6.723l.498-.29-.498-.422v.712m1.565-.91l9.057-5.259.001-1.046-9.788 5.684.73.622m10.01-5.814l4.518-2.623.866-1.377.718.457 4.521-2.626.002-1.046-10.623 6.17-.001 1.045m11.574-6.721l10.625-6.17.001-1.048-10.625 6.17-.001 1.048m11.578-6.724l10.623-6.17.001-1.046-10.623 6.17-.001 1.046m11.576-6.723l.001-1.047-.001 1.047M220.22 262.46l10.624-6.17.001-1.047-10.623 6.17-.002 1.046m11.577-6.722l10.624-6.17v-1.047l-10.623 6.17-.001 1.047m11.576-6.724l10.625-6.169v-.253l-.493-.507-10.13 5.882-.002 1.047m12.514-7.267l9.688-5.626.001-1.047-9.005 5.23-.684 1.443m10.638-6.178l10.626-6.17.001-1.047-10.626 6.17-.001 1.047m11.578-6.722l10.623-6.17.002-1.048-10.624 6.17-.001 1.048m11.576-6.724l10.624-6.17.001-1.046-1.877 1.091-.76 1.209-.537-.456-7.45 4.325v1.047m11.576-6.724l10.623-6.169.001-1.046-10.623 6.17-.001 1.045m11.575-6.721l2.135-1.24-.87-.54-1.264.734-.001 1.046m3.558-2.066l7.067-4.104v-1.046l-7.926 4.604.859.546m8.02-4.658l10.623-6.169v-1.045l-10.622 6.169-.002 1.045m11.578-7.417v-.35.35M220.206 273.43l10.624-6.168.001-1.047-10.624 6.169v1.047m11.577-6.723l10.623-6.17.002-1.047-10.624 6.17-.001 1.047m11.576-6.724l10.624-6.169.001-1.047-10.623 6.17-.002 1.046m11.577-6.722l10.625-6.17.001-1.046-10.625 6.169-.001 1.047m11.575-6.723l10.626-6.17.001-1.047-10.626 6.172-.001 1.045m11.576-6.722l10.625-6.17.002-1.046-10.625 6.169-.002 1.047m11.578-6.724l10.624-6.169.001-1.047-10.624 6.17v1.046m11.576-6.722l10.623-6.17.001-1.046-10.623 6.169-.001 1.047m11.575-6.721l10.625-6.17v-.783l-.22-.137-10.404 6.043-.001 1.047m12.59-7.313l9.61-5.58.001-1.047-10.47 6.081.86.546M220.287 207.733l10.624-6.169v-.39l.954-.544-.001.38 10.623-6.17v-.41l.954-.545-.001.402 10.624-6.17v-.431l.954-.546v.424l10.622-6.169.001-.453.952-.545v.445l10.623-6.17.002-.473.951-.547v.467l10.624-6.169v-.496l.953-.545v.487l10.623-6.17v-.515l.954-.546v.508l10.623-6.169v-.536l.953-.547-.002.53 10.625-6.17v-.558l.953-.546-.001.551 10.623-6.169.002-.58.952-.545v-.475l-115.763 67.229v1.045M219.42 284.852l113.802-66.087-.871-.54-7.969 4.627v.024l-.951.55v-.021l-10.626 6.17v.046l-.95.55v-.044l-10.624 6.17v.067l-.953.551v-.065l-10.624 6.17v.089l-.952.548v-.083l-10.625 6.169v.11l-.952.549.001-.107-10.626 6.171v.131l-.951.55v-.128l-10.624 6.17v.153l-.953.548v-.149l-10.623 6.17-.002.173-.951.55v-.17l-10.625 6.17v.194l-.953.55v-.19l-10.624 6.17v1.037l-.775.448v.01m114.403-66.438l2.137-1.24.001-1.042-.954.55-1.44.835.696.441-.44.456M220.273 218.571l6.625-3.847-.65-.668-5.974 3.47-.001 1.045m7.814-4.537l2.81-1.632.002-1.047-3.47 2.016.658.663m3.763-2.185l10.624-6.17.001-1.046-10.623 6.169-.002 1.047m11.577-6.724l10.623-6.169.002-1.046-10.624 6.17-.001 1.045m11.576-6.722l10.624-6.17.001-1.046-10.623 6.17-.002 1.046m11.577-6.723l10.623-6.17.002-1.046-10.624 6.17-.001 1.046m11.576-6.722l10.624-6.17.001-1.046-10.623 6.169-.002 1.047m11.577-6.724l10.623-6.17.002-1.045-10.624 6.17-.001 1.045m11.576-6.723l10.624-6.169.001-1.046-10.624 6.17v1.045m11.574-6.722l10.625-6.17.001-1.046-10.624 6.17-.002 1.046m11.577-6.722l10.623-6.17.002-1.046-10.624 6.17-.001 1.046M220.26 229.544l10.623-6.17.002-1.047-10.624 6.17-.001 1.047m11.577-6.723l1.876-1.09-.65-.668-1.224.71-.002 1.048m3.17-1.84l7.454-4.33.001-1.047-8.116 4.714.66.663m8.408-4.883l10.623-6.17.002-1.046-10.624 6.169-.001 1.047m11.576-6.723l10.624-6.169.001-1.048-10.623 6.17-.002 1.047m11.575-6.722l8.278-4.806.542-1.124.565.48 1.24-.72.002-1.047-10.625 6.17-.002 1.047m11.577-6.723l10.623-6.17.002-1.047-10.624 6.17-.001 1.047m11.578-6.723l10.622-6.17.001-1.046-10.622 6.169-.001 1.047m11.576-6.723l10.624-6.169.001-1.047-10.624 6.17v1.046m11.574-6.722l10.625-6.17.001-1.048-10.625 6.17v1.048m11.576-6.723l10.623-6.169.002-1.048-10.624 6.17-.001 1.047m11.576-6.724l.001-1.047v1.049M220.247 240.515l10.623-6.17.002-1.046-10.624 6.17-.001 1.046m11.577-6.724l8.703-5.052-.65-.669-8.051 4.676-.002 1.045m10.1-5.864l.524-.305.001-1.046-1.185.689.66.662m1.477-.858l10.623-6.169.002-1.047-10.624 6.17-.001 1.046m11.576-6.722l10.624-6.17.001-1.046-10.623 6.169-.002 1.047m11.575-6.723l.938-.544.7-1.453-1.636.95-.002 1.047m3.684-2.14l6.941-4.03.002-1.047-6.258 3.634-.685 1.444m7.893-4.583l4.393-2.552-.73-.622-3.662 2.127-.001 1.047m5.475-3.18l5.148-2.99.002-1.048-5.88 3.415.73.623m6.103-3.544l10.622-6.17.001-1.046-10.622 6.169-.001 1.047m11.576-6.723l10.622-6.169.002-1.046-10.623 6.169-.001 1.046m11.574-6.722l10.626-6.17.001-1.047-10.626 6.17-.001 1.047m11.578-6.723l10.623-6.169.001-1.048-10.623 6.17-.001 1.047"/>
        <path fill="#F4F5F7" d="M335.006 216.682l.954-.549.026-21.597v-.35l.065-54.253v.001l-.952.546-.002.58-.065 53.679v1.045l-.026 20.898M323.43 223.426l.952-.55v-.024l.012-9.565-.95-.59-.013 10.708v.02m.966-11.73l.077-64.467.001-.55-.953.545v.559l-.077 63.31.952.603M311.854 230.17l.95-.549v-.046l.03-23.46-.95-.59-.03 24.602v.044m.982-25.817l.061-50.403.002-.53-.953.547v.536l-.06 49.247.95.603M300.278 236.915l.953-.55v-.069l.03-24.805-.954 1.517-.03 23.842v.065m.032-26.396l.954-1.52.06-48.326v-.508l-.954.546v.516l-.06 49.292M288.702 243.657l.952-.548v-.089l.04-31.87v-.712l-.952-.808-.04 33.944v.083m.994-34.746l.05-41.515v-.487l-.953.545v.496l-.05 40.15.953.81M277.125 250.402l.952-.55v-.11l.06-49.115-.95-.807-.06 50.475-.002.107m1.013-51.335l.031-24.948v-.467l-.951.547-.002.473-.027 23.586.949.809M265.549 257.147l.951-.55v-.13l.046-37.199-.954 2.01-.043 35.74v.129m.048-40.147l.954-1.975.042-34.183v-.445l-.952.545-.001.453-.043 35.605M253.972 263.89l.953-.548v-.153l.024-19.62-.95-.978v.253l-.027 20.897v.149m.343-23.52l.639-1.323.064-51.483v-.424l-.953.546-.001.432-.063 51.938.314.314M242.396 270.633l.951-.55.002-.172.045-38.224-.95-.977-.048 39.755v.168m1.002-41.226l.042-35.12.001-.402-.954.545v.41l-.04 33.613.951.954M230.818 277.378l.953-.55v-.194l.07-56.828-.951-.978-.072 58.36v.19m1.026-59.573l.02-16.794v-.381l-.953.544v.39l-.019 15.286.952.955M219.243 284.945l.176-.102.774-.448.095-77.707v-.01l-.951.545-.094 77.722"/>
        <path fill="#C6C3D7" d="M254.998 243.62l10.594-22.341.954-2.01 3.69-7.784 5.939-12.524 1.962 1.666 3.654 3.101.731.622 7.172 6.088.498.423 7.474 6.345.761-1.209 8.516-13.537 4.941 3.065.95.59 1.262.783.87.539 8.257 5.123.22.137.951.59 8.828 5.478.165.101.435-.451.44-.456-.696-.441-8.158-5.181-.86-.546-.151-.096-.952-.603-7.056-4.481-3.553-2.257-.95-.603-4.515-2.867-.718-.457-5.39 8.572-.954 1.52-3.042 4.84-6.008-5.118-1.563-1.33-.953-.811-5.87-5-4.735-4.033-.949-.81-1.239-1.054-.565-.48-.542 1.124-19.89 41.2-.638 1.323-.314-.314-10.603-10.65-.951-.953-.524-.526-13.836-13.893-.659-.663-6.024-6.049-1.087.634 10.573 10.872.951.978 1.222 1.257 9.381 9.647.95.977 10.11 10.397.494.507.95.977.05.053"/>
        <path fill="#B0B1CE" d="M378.3 150.27l-26.632 15.401c-2.031 1.174-4.57-.29-4.57-2.636v-35.57c0-1.088.58-2.093 1.52-2.637l26.632-15.402c2.031-1.174 4.57.291 4.57 2.637v35.57c0 1.087-.58 2.092-1.52 2.637"/>
        <path fill="#FFFBFB" d="M363.433 136.294l12.897-7.511a.656.656 0 0 0 .237-.901.658.658 0 0 0-.9-.239l-12.898 7.511a.659.659 0 0 0 .333 1.23l.331-.09zm0-2.95l12.897-7.513a.659.659 0 1 0-.663-1.14l-12.898 7.512a.66.66 0 0 0 .333 1.23l.331-.09zm0-2.953l12.897-7.511a.657.657 0 0 0 .237-.902.661.661 0 0 0-.9-.239l-12.898 7.512a.659.659 0 0 0 .333 1.23l.331-.09zm0-2.952l12.897-7.51a.659.659 0 1 0-.663-1.14l-12.898 7.51a.66.66 0 0 0 .333 1.23l.331-.09zm-.331-2.86a.658.658 0 0 1-.57-.33.658.658 0 0 1 .237-.9l12.897-7.511a.659.659 0 0 1 .664 1.14l-12.897 7.51-.331.09zm-1.355 12.615v-11.361c0-.973-1.05-1.58-1.893-1.094l-8.44 4.883c-.391.225-.631.64-.631 1.091v11.363a1.26 1.26 0 0 0 1.892 1.091l8.443-4.88c.39-.226.629-.642.629-1.093zM363.433 154.003l12.897-7.51a.659.659 0 1 0-.663-1.14l-12.898 7.51a.657.657 0 0 0-.237.901.658.658 0 0 0 .57.33l.331-.091zm0-2.951l12.897-7.511a.657.657 0 0 0 .237-.902.657.657 0 0 0-.9-.238l-12.898 7.511a.658.658 0 0 0-.237.9.658.658 0 0 0 .57.33l.331-.09zm0-2.952l12.897-7.512a.66.66 0 0 0-.663-1.14l-12.898 7.513a.658.658 0 0 0-.237.9.658.658 0 0 0 .57.33l.331-.09zm0-2.951l12.897-7.511a.657.657 0 0 0 .237-.902.657.657 0 0 0-.9-.238l-12.898 7.511a.658.658 0 0 0 .333 1.229l.331-.09zm-.331-2.863a.66.66 0 0 1-.333-1.23l12.897-7.51a.66.66 0 0 1 .664 1.14l-12.897 7.512-.331.088zm-1.355 12.616v-11.361a1.26 1.26 0 0 0-1.893-1.093l-8.44 4.882c-.391.226-.631.642-.631 1.093v11.361c0 .973 1.052 1.58 1.892 1.093l8.443-4.882c.39-.226.629-.642.629-1.093z"/>
        <path fill="#B0B1CE" d="M379.316 200.816l-26.631 15.402c-2.031 1.173-4.57-.291-4.57-2.636v-35.571c0-1.088.58-2.093 1.52-2.636l26.633-15.403c2.03-1.172 4.569.293 4.569 2.637v35.572c0 1.087-.58 2.092-1.521 2.635"/>
        <path fill="#FFFBFB" d="M364.452 186.84l12.896-7.51a.658.658 0 1 0-.664-1.14l-12.898 7.51a.662.662 0 0 0 .333 1.23l.333-.09zm0-2.95l12.896-7.512a.659.659 0 1 0-.664-1.14l-12.898 7.512a.661.661 0 0 0 .333 1.23l.333-.09zm0-2.951l12.896-7.511a.66.66 0 1 0-.664-1.14l-12.898 7.51a.662.662 0 0 0-.238.902.657.657 0 0 0 .57.327l.334-.088zm0-2.952l12.896-7.51a.658.658 0 0 0 .236-.903.659.659 0 0 0-.9-.239l-12.898 7.511a.662.662 0 0 0 .333 1.23l.333-.089zm-.333-2.862a.66.66 0 0 1-.333-1.23l12.897-7.51a.66.66 0 0 1 .665 1.14l-12.896 7.51-.333.09zm-1.354 12.616v-11.362c0-.972-1.052-1.58-1.892-1.093l-8.443 4.882c-.39.226-.63.641-.63 1.093v11.362c0 .97 1.052 1.579 1.894 1.092l8.44-4.882c.391-.226.631-.642.631-1.092zM364.452 204.55l12.896-7.511a.656.656 0 0 0 .236-.901.658.658 0 0 0-.9-.239l-12.898 7.51a.661.661 0 0 0 .333 1.23l.333-.09zm0-2.95l12.896-7.513a.656.656 0 0 0 .236-.9.658.658 0 0 0-.9-.24l-12.898 7.513a.66.66 0 0 0 .333 1.228l.333-.089zm0-2.953l12.896-7.511a.659.659 0 1 0-.664-1.14l-12.898 7.511a.662.662 0 0 0 .333 1.23l.333-.09zm0-2.952l12.896-7.51a.657.657 0 0 0 .236-.903.658.658 0 0 0-.9-.237l-12.898 7.51a.661.661 0 0 0 .333 1.23l.333-.09zm-.333-2.86a.66.66 0 0 1-.333-1.23l12.897-7.511a.66.66 0 0 1 .665 1.14l-12.896 7.51-.333.09zm-1.354 12.615v-11.363a1.262 1.262 0 0 0-1.892-1.092l-8.443 4.882c-.39.225-.63.642-.63 1.092v11.363a1.263 1.263 0 0 0 1.894 1.093l8.44-4.882c.391-.226.631-.643.631-1.093z"/>
        <path fill="#B0B1CE" d="M335.659 229.143l-32.6 18.853c-2.487 1.437-5.595-.356-5.595-3.227v-43.543c0-1.33.709-2.56 1.861-3.227l32.602-18.853c2.485-1.437 5.593.357 5.593 3.227v43.543c0 1.33-.709 2.56-1.861 3.227"/>
        <path fill="#FFFBFB" d="M327.554 233.83l-18.612 10.763s0-13.896 2.825-19.235c2.772-5.237 9.496-7.511 12.369-4.75 3.56 3.42 3.418 13.221 3.418 13.221zm-3.418-34.311c-3.598-2.343-9.135-.216-12.37 4.75-3.232 4.965-2.937 10.89.66 13.233s9.134.216 12.369-4.75c3.233-4.965 2.94-10.89-.66-13.233z"/>
        <g transform="matrix(-1 0 0 1 225 193)">
            <mask id="b" fill="#fff">
                <use xlink:href="#a"/>
            </mask>
            <path fill="#CECDDD" d="M.096 23.948l26.966 15.486V15.072L.096-.413v24.361" mask="url(#b)"/>
            <path fill="#D6DCE7" d="M.096 23.948l26.966 15.486-14.229-21.678L.096 23.948" mask="url(#b)"/>
            <path fill="#D6DCE7" d="M14.1 19.51l12.962-4.438L.096-.413l11.583 19.05c.499.821 1.508 1.185 2.421.873" mask="url(#b)"/>
        </g>
        <g>
            <path fill="#BCB7D0" d="M465.884 278.43h.001l22.944-13.364-22.807-13.284-23.109 13.46 22.971 13.188"/>
            <path fill="#CCC7DA" d="M437.025 295.838l22.944-13.363-22.808-13.285-23.108 13.46 22.972 13.188M407.535 312.541l22.944-13.363-22.806-13.285-23.109 13.46 22.97 13.188"/>
            <path fill="#7778AB" d="M485.174 265.262l-17.649 10.28-17.67-10.145V152.483l35.319-.135v112.914"/>
            <path fill="#D6DCE7" d="M485.174 152.348l-17.649 10.28-17.67-10.145 17.777-10.354 17.542 10.219"/>
            <path fill="#B6B1CC" d="M467.525 275.542V162.628l-17.67-10.145v112.914l17.67 10.145"/>
            <path fill="#7778AB" d="M455.363 282.737l-17.65 10.28-17.67-10.145V185.66l35.32-.134v97.21"/>
            <path fill="#D6DCE7" d="M455.363 185.526l-17.65 10.28-17.67-10.146 17.777-10.351 17.543 10.217"/>
            <path fill="#B0B1CE" d="M437.714 293.016v-97.21l-17.67-10.146v97.212l17.67 10.144"/>
            <path fill="#7778AB" d="M425.552 300.211l-17.65 10.28-17.67-10.144v-75.17l35.32-.136v75.17"/>
            <path fill="#D6DCE7" d="M425.552 225.041l-17.65 10.279-17.67-10.143 17.777-10.354 17.543 10.218"/>
            <path fill="#B0B1CE" d="M407.902 310.491V235.32l-17.67-10.143v75.17l17.67 10.144"/>
            <path fill="#CCC7DA" d="M248.456 448.246c10.779 0 19.515-4.642 19.515-10.368 0-1.417-.535-2.768-1.506-3.999v1.628c0 3.61-3.592 6.768-8.939 8.466-.557.186-1.127.361-1.727.507v-.025c-2.242.546-4.727.849-7.341.849-9.213 0-16.811-3.766-17.88-8.62-.507.09-1.026.172-1.552.241-.053.315-.08.633-.08.953 0 5.726 8.736 10.368 19.51 10.368M224.28 437.234c1.637 0 3.227-.106 4.746-.309.184-1.068.672-2.09 1.42-3.04a32.199 32.199 0 0 1-6.574.422v1.718c0 .344-.033.684-.096 1.018.011.062.023.126.032.189l.473.002m-15.783-8.867c-.922-1.178-1.433-2.475-1.433-3.836v-2.546c-1.465 1.454-2.296 3.116-2.296 4.88 0 .48.06.95.178 1.411a32.922 32.922 0 0 1 3.55.091"/>
            <path fill="#AFA8C7" d="M229.026 436.925c.526-.069 1.045-.15 1.553-.242a5.472 5.472 0 0 1-.128-1.176v-1.624l-.005.002c-.748.95-1.236 1.972-1.42 3.04"/>
            <path fill="#CCC7DA" d="M205.864 454.755c10.777 0 19.514-4.642 19.514-10.368 0-1.416-.536-2.768-1.506-3.998v1.677c0 3.599-3.565 6.744-8.878 8.447a23 23 0 0 1-1.789.527v-.025c-2.243.545-4.727.849-7.34.849-9.946 0-18.007-4.387-18.007-9.798v-1.677c-.97 1.23-1.507 2.582-1.507 3.998 0 5.726 8.736 10.368 19.513 10.368"/>
            <path fill="#8D8BB7" d="M207.065 420.527v4.004c0 5.41 8.062 9.798 18.007 9.798 9.946 0 18.007-4.387 18.007-9.798v-4.004h-36.014"/>
            <path fill="#A5A3C5" d="M217.706 430.68v-1.211a25.68 25.68 0 0 1-1.789-.503v.965c.624.23 1.222.48 1.789.749m-6.496-1.978v-1.92c-1.354-.889-2.426-1.908-3.14-3.018v3.971c.137.215.287.426.449.634.922.074 1.82.186 2.69.333"/>
            <path fill="#D6DCE7" d="M243.08 420.527c0 5.41-8.062 9.797-18.008 9.797-9.945 0-18.007-4.388-18.007-9.797 0-5.411 8.062-9.799 18.007-9.799 9.946 0 18.007 4.388 18.007 9.8"/>
            <path fill="#B0B1CE" d="M238.933 420.404c0 4.067-6.204 7.364-13.861 7.364-7.657 0-13.862-3.297-13.862-7.364 0-4.066 6.205-7.363 13.862-7.363s13.861 3.297 13.861 7.363"/>
            <path fill="#8D8BB7" d="M225.072 414.061c-7.333 0-13.32 3.027-13.814 6.853-.022-.169-.048-.338-.048-.51 0-4.066 6.205-7.363 13.862-7.363s13.863 3.297 13.863 7.363c0 .172-.026.341-.05.51-.494-3.826-6.48-6.853-13.813-6.853"/>
            <path fill="#8D8BB7" d="M224.201 419.318c.326-.476.37-.884-.18-1.2-.61-.356-1.317-.347-1.996-.067l2.176 1.267m1.75 3.37c.577.337 1.399.355 2.133.051l-2.218-1.29c-.382.49-.48.91.085 1.238m-7.012-5.266l-1.269-.74 1.002-.579 1.271.74c2.288-1.165 5.102-1.44 7.056-.306 2.46 1.431.82 2.926-.426 4.16l2.475 1.44c.366-.416.286-.827-.3-1.233l2.871-1.66c1.954 1.222 1.501 2.768-.457 4.12l1.285.751-1.005.578-1.267-.737c-2.604 1.373-5.45 1.293-7.145.308-2.429-1.413-.717-2.921.5-4.174l-2.43-1.41c-.29.343-.228.727.287 1.103l-2.888 1.667c-1.84-1.24-1.558-2.677.44-4.028"/>
            <path fill="#D6DCE7" d="M224.201 418.855c.326-.477.37-.882-.18-1.2-.61-.356-1.317-.346-1.996-.066l2.176 1.266m1.75 3.37c.577.337 1.399.357 2.133.05l-2.218-1.289c-.382.49-.48.911.085 1.238m-7.012-5.265l-1.269-.74 1.002-.578 1.271.738c2.288-1.164 5.102-1.44 7.056-.305 2.46 1.43.82 2.927-.426 4.16l2.475 1.438c.366-.415.286-.825-.3-1.232l2.871-1.66c1.954 1.22 1.501 2.768-.457 4.122l1.285.748-1.005.579-1.267-.736c-2.604 1.372-5.45 1.293-7.145.307-2.429-1.413-.717-2.92.5-4.173l-2.43-1.41c-.29.344-.228.728.287 1.102l-2.888 1.667c-1.84-1.238-1.558-2.677.44-4.027"/>
            <path fill="#8D8BB7" d="M207.065 414.461v4.006c0 5.41 8.062 9.796 18.007 9.796 9.946 0 18.007-4.386 18.007-9.796v-4.006h-36.014"/>
            <path fill="#A5A3C5" d="M217.706 427.399v-3.995a24.98 24.98 0 0 1-1.789-.504v3.972c.576.193 1.165.376 1.789.527m14.707-1.887h1.788v-2.603c-.577.185-1.173.352-1.788.501v2.102m-21.203-.796v-4.001c-1.354-.886-2.426-1.907-3.14-3.016v3.971c.714 1.121 1.775 2.154 3.14 3.046"/>
            <path fill="#D6DCE7" d="M243.08 414.461c0 5.41-8.062 9.798-18.008 9.798-9.945 0-18.007-4.387-18.007-9.798 0-5.41 8.062-9.797 18.007-9.797 9.946 0 18.007 4.387 18.007 9.797"/>
            <path fill="#B0B1CE" d="M238.933 414.339c0 4.068-6.204 7.365-13.861 7.365-7.657 0-13.862-3.297-13.862-7.365 0-4.067 6.205-7.364 13.862-7.364s13.861 3.297 13.861 7.364"/>
            <path fill="#8D8BB7" d="M225.072 407.995c-7.333 0-13.32 3.028-13.814 6.853-.022-.169-.048-.337-.048-.51 0-4.066 6.205-7.363 13.862-7.363s13.863 3.297 13.863 7.364c0 .172-.026.34-.05.51-.494-3.826-6.48-6.854-13.813-6.854"/>
            <path fill="#8D8BB7" d="M224.201 413.253c.326-.477.37-.884-.18-1.2-.61-.356-1.317-.347-1.996-.067l2.176 1.267m1.75 3.37c.577.336 1.399.355 2.133.051l-2.218-1.29c-.382.489-.48.912.085 1.238m-7.012-5.265l-1.269-.74 1.002-.578 1.271.736c2.288-1.162 5.102-1.437 7.056-.303 2.46 1.432.82 2.927-.426 4.159l2.475 1.44c.366-.417.286-.826-.3-1.233l2.871-1.66c1.954 1.22 1.501 2.768-.457 4.122l1.285.748-1.005.579-1.267-.738c-2.604 1.374-5.45 1.293-7.145.31-2.429-1.412-.717-2.923.5-4.176l-2.43-1.41c-.29.345-.228.729.287 1.103l-2.888 1.668c-1.84-1.238-1.558-2.677.44-4.027"/>
            <path fill="#D6DCE7" d="M224.201 412.79c.326-.475.37-.883-.18-1.2-.61-.356-1.317-.346-1.996-.067l2.176 1.267m1.75 3.37c.577.337 1.399.355 2.133.052l-2.218-1.29c-.382.49-.48.91.085 1.238m-7.012-5.266l-1.269-.74 1.002-.58 1.271.74c2.288-1.164 5.102-1.44 7.056-.305 2.46 1.431.82 2.926-.426 4.16l2.475 1.44c.366-.416.286-.827-.3-1.234l2.871-1.66c1.954 1.221 1.501 2.77-.457 4.122l1.285.75-1.005.577-1.267-.736c-2.604 1.372-5.45 1.293-7.145.307-2.429-1.412-.717-2.92.5-4.173l-2.43-1.41c-.29.344-.228.727.287 1.102l-2.888 1.667c-1.84-1.238-1.558-2.677.44-4.027"/>
            <path fill="#8D8BB7" d="M207.065 408.397v4.004c0 5.411 8.062 9.799 18.007 9.799 9.946 0 18.007-4.388 18.007-9.8v-4.003h-36.014"/>
            <path fill="#DEE5ED" d="M232.413 421.375a21.509 21.509 0 0 0 1.717-.504c-.555.176-1.128.337-1.717.48v.024"/>
            <path fill="#A5A3C5" d="M232.413 421.351a26.159 26.159 0 0 0 1.788-.503v-4.005a26.09 26.09 0 0 1-1.788.503v4.005m-14.707-.016v-3.996a26.416 26.416 0 0 1-1.789-.504v3.971a21.61 21.61 0 0 0 1.789.53m-6.496-2.684v-4.002c-1.354-.887-2.426-1.907-3.14-3.017v3.971c.714 1.123 1.775 2.155 3.14 3.048"/>
            <path fill="#D6DCE7" d="M243.08 408.397c0 5.409-8.062 9.797-18.008 9.797-9.945 0-18.007-4.388-18.007-9.797 0-5.41 8.062-9.798 18.007-9.798 9.946 0 18.007 4.387 18.007 9.798"/>
            <path fill="#B0B1CE" d="M238.933 408.273c0 4.068-6.204 7.367-13.861 7.367-7.657 0-13.862-3.3-13.862-7.367 0-4.066 6.205-7.363 13.862-7.363s13.861 3.297 13.861 7.363"/>
            <path fill="#8D8BB7" d="M225.072 401.93c-7.333 0-13.32 3.027-13.814 6.854-.022-.17-.048-.338-.048-.511 0-4.066 6.205-7.363 13.862-7.363s13.863 3.297 13.863 7.363c0 .173-.026.341-.05.51-.494-3.826-6.48-6.853-13.813-6.853"/>
            <path fill="#8D8BB7" d="M224.201 407.187c.326-.476.37-.881-.18-1.2-.61-.355-1.317-.346-1.996-.066l2.176 1.266m1.75 3.37c.577.337 1.399.356 2.133.051l-2.218-1.289c-.382.49-.48.911.085 1.239m-7.012-5.267l-1.269-.738 1.002-.58 1.271.738c2.288-1.163 5.102-1.44 7.056-.305 2.46 1.432.82 2.928-.426 4.161l2.475 1.438c.366-.416.286-.825-.3-1.233l2.871-1.66c1.954 1.222 1.501 2.77-.457 4.123l1.285.749-1.005.578-1.267-.737c-2.604 1.373-5.45 1.294-7.145.308-2.429-1.412-.717-2.922.5-4.173l-2.43-1.412c-.29.346-.228.729.287 1.103l-2.888 1.668c-1.84-1.238-1.558-2.678.44-4.028"/>
            <path fill="#D6DCE7" d="M224.201 406.726c.326-.476.37-.884-.18-1.2-.61-.357-1.317-.348-1.996-.067l2.176 1.267m1.75 3.37c.577.336 1.399.355 2.133.051l-2.218-1.29c-.382.49-.48.912.085 1.24m-7.012-5.268l-1.269-.74 1.002-.578 1.271.737c2.288-1.163 5.102-1.44 7.056-.304 2.46 1.431.82 2.928-.426 4.16l2.475 1.44c.366-.416.286-.827-.3-1.233l2.871-1.661c1.954 1.223 1.501 2.768-.457 4.121l1.285.751-1.005.578-1.267-.738c-2.604 1.374-5.45 1.294-7.145.309-2.429-1.413-.717-2.921.5-4.174l-2.43-1.41c-.29.343-.228.727.287 1.101l-2.888 1.669c-1.84-1.24-1.558-2.678.44-4.028"/>
            <path fill="#8D8BB7" d="M207.065 402.332v4.005c0 5.41 8.062 9.798 18.007 9.798 9.946 0 18.007-4.389 18.007-9.798v-4.005h-36.014"/>
            <path fill="#DEE5ED" d="M232.413 415.31a21.318 21.318 0 0 0 1.715-.503c-.553.176-1.126.336-1.715.48v.023"/>
            <path fill="#A5A3C5" d="M232.413 415.286a25.895 25.895 0 0 0 1.788-.504v-4.004c-.577.185-1.173.353-1.788.502v4.006m-14.707-.015v-3.998a25.68 25.68 0 0 1-1.789-.503v3.973c.576.193 1.165.374 1.789.528m-6.496-2.684v-4.001c-1.354-.888-2.426-1.907-3.14-3.018v3.972c.714 1.12 1.775 2.153 3.14 3.047"/>
            <path fill="#D6DCE7" d="M243.08 402.332c0 5.409-8.062 9.796-18.008 9.796-9.945 0-18.007-4.387-18.007-9.796 0-5.41 8.062-9.798 18.007-9.798 9.946 0 18.007 4.387 18.007 9.798"/>
            <path fill="#B0B1CE" d="M238.933 402.208c0 4.068-6.204 7.366-13.861 7.366-7.657 0-13.862-3.298-13.862-7.366 0-4.065 6.205-7.363 13.862-7.363s13.861 3.298 13.861 7.363"/>
            <path fill="#8D8BB7" d="M225.072 395.866c-7.333 0-13.32 3.026-13.814 6.854-.022-.17-.048-.339-.048-.512 0-4.065 6.205-7.363 13.862-7.363s13.863 3.298 13.863 7.363c0 .173-.026.341-.05.512-.494-3.828-6.48-6.854-13.813-6.854"/>
            <path fill="#8D8BB7" d="M224.201 401.124c.326-.477.37-.884-.18-1.202-.61-.355-1.317-.347-1.996-.067l2.176 1.269m1.75 3.369c.577.337 1.399.354 2.133.05l-2.218-1.288c-.382.49-.48.91.085 1.238m-7.012-5.266l-1.269-.739 1.002-.58 1.271.74c2.288-1.165 5.102-1.441 7.056-.307 2.46 1.432.82 2.927-.426 4.162l2.475 1.437c.366-.414.286-.826-.3-1.232l2.871-1.661c1.954 1.222 1.501 2.768-.457 4.124l1.285.748-1.005.578-1.267-.737c-2.604 1.372-5.45 1.294-7.145.309-2.429-1.413-.717-2.923.5-4.174l-2.43-1.41c-.29.343-.228.727.287 1.101l-2.888 1.669c-1.84-1.239-1.558-2.679.44-4.028"/>
            <path fill="#D6DCE7" d="M224.201 400.66c.326-.476.37-.882-.18-1.2-.61-.355-1.317-.346-1.996-.066l2.176 1.267m1.75 3.37c.577.335 1.399.355 2.133.051l-2.218-1.29c-.382.49-.48.911.085 1.238m-7.012-5.266l-1.269-.74 1.002-.577 1.271.736c2.288-1.163 5.102-1.438 7.056-.304 2.46 1.432.82 2.928-.426 4.16l2.475 1.44c.366-.417.286-.827-.3-1.235l2.871-1.659c1.954 1.222 1.501 2.769-.457 4.123l1.285.748-1.005.579-1.267-.738c-2.604 1.374-5.45 1.293-7.145.308-2.429-1.412-.717-2.921.5-4.174l-2.43-1.41c-.29.345-.228.728.287 1.103l-2.888 1.668c-1.84-1.238-1.558-2.677.44-4.028"/>
            <path fill="#8D8BB7" d="M207.065 396.266v4.006c0 5.41 8.062 9.797 18.007 9.797 9.946 0 18.007-4.387 18.007-9.797v-4.006h-36.014"/>
            <path fill="#DEE5ED" d="M232.413 409.244a21.476 21.476 0 0 0 1.715-.502c-.553.176-1.126.335-1.715.478v.024"/>
            <path fill="#A5A3C5" d="M232.413 409.22a25.895 25.895 0 0 0 1.715-.478l.073-.025v-9.554h-1.788v10.057m-14.707-.015v-10.08h-1.789v9.553c.576.193 1.165.375 1.789.527m-6.496-2.683v-9.792h-3.14v6.746c.714 1.12 1.775 2.153 3.14 3.046"/>
            <path fill="#D6DCE7" d="M243.08 396.266c0 5.411-8.062 9.797-18.008 9.797-9.945 0-18.007-4.386-18.007-9.797 0-5.41 8.062-9.797 18.007-9.797 9.946 0 18.007 4.388 18.007 9.797"/>
            <path fill="#B0B1CE" d="M238.933 396.145c0 4.066-6.204 7.364-13.861 7.364-7.657 0-13.862-3.298-13.862-7.364 0-4.067 6.205-7.365 13.862-7.365s13.861 3.298 13.861 7.365"/>
            <path fill="#8D8BB7" d="M225.072 389.8c-7.333 0-13.32 3.027-13.814 6.854-.022-.17-.048-.337-.048-.51 0-4.066 6.205-7.364 13.862-7.364s13.863 3.298 13.863 7.365c0 .172-.026.34-.05.51-.495-3.828-6.48-6.854-13.813-6.854"/>
            <path fill="#8D8BB7" d="M224.201 395.059c.326-.477.37-.884-.18-1.202-.61-.356-1.317-.345-1.996-.065l2.176 1.267zm1.75 3.37c.577.335 1.399.355 2.133.05l-2.218-1.29c-.382.49-.48.912.085 1.24zm-7.012-5.267l-1.269-.74 1.002-.579 1.27.738c2.289-1.163 5.103-1.439 7.056-.305 2.46 1.432.822 2.927-.425 4.16l2.475 1.44c.366-.416.286-.827-.3-1.234l2.871-1.659c1.954 1.221 1.501 2.769-.457 4.122l1.285.748-1.005.58-1.267-.738c-2.604 1.373-5.45 1.293-7.145.309-2.429-1.413-.717-2.922.5-4.175l-2.43-1.41c-.29.344-.228.728.287 1.103l-2.888 1.667c-1.84-1.239-1.558-2.678.44-4.027z"/>
            <path fill="#D6DCE7" d="M224.201 394.596c.326-.477.37-.884-.18-1.202-.61-.354-1.317-.345-1.996-.065l2.176 1.267zm1.75 3.37c.577.337 1.399.355 2.133.05l-2.218-1.289c-.382.49-.48.911.085 1.238zm-7.012-5.266l-1.269-.74 1.002-.58 1.27.738c2.289-1.162 5.103-1.439 7.056-.305 2.46 1.433.822 2.93-.425 4.162l2.475 1.438c.366-.416.286-.825-.3-1.232l2.871-1.66c1.954 1.22 1.501 2.768-.457 4.122l1.285.748-1.005.579-1.267-.738c-2.604 1.374-5.45 1.295-7.145.31-2.429-1.414-.717-2.923.5-4.174l-2.43-1.412c-.29.346-.228.729.287 1.104l-2.888 1.667c-1.84-1.238-1.558-2.678.44-4.027z"/>
            <path fill="#8D8BB7" d="M187.858 438.062v4.004c0 5.41 8.061 9.798 18.006 9.798 9.946 0 18.008-4.387 18.008-9.798v-4.004h-36.014"/>
            <path fill="#D5D2E0" d="M213.205 451.04a23 23 0 0 0 1.789-.527c-.577.184-1.174.352-1.789.502v.025"/>
            <path fill="#A5A3C5" d="M213.205 451.015c.615-.15 1.212-.318 1.789-.502v-4.005c-.577.185-1.174.353-1.789.502v4.005M198.498 451v-3.995a26.593 26.593 0 0 1-1.787-.505v3.972c.574.194 1.163.375 1.787.528m-6.496-2.684v-4c-1.353-.888-2.425-1.907-3.139-3.018v3.972c.715 1.12 1.774 2.154 3.14 3.046"/>
            <path fill="#D6DCE7" d="M223.872 438.062c0 5.41-8.062 9.796-18.008 9.796-9.945 0-18.006-4.387-18.006-9.796 0-5.412 8.061-9.799 18.006-9.799 9.946 0 18.008 4.387 18.008 9.8"/>
            <path fill="#B0B1CE" d="M219.727 437.938c0 4.068-6.205 7.366-13.863 7.366-7.656 0-13.862-3.298-13.862-7.366 0-4.065 6.206-7.363 13.862-7.363 7.658 0 13.863 3.298 13.863 7.363"/>
            <path fill="#8D8BB7" d="M205.864 431.596c-7.33 0-13.319 3.026-13.814 6.853-.02-.17-.048-.339-.048-.51 0-4.066 6.206-7.364 13.862-7.364 7.658 0 13.863 3.298 13.863 7.363 0 .172-.026.342-.05.511-.493-3.827-6.48-6.853-13.813-6.853"/>
            <path fill="#8D8BB7" d="M204.995 436.853c.325-.476.368-.884-.18-1.2-.612-.355-1.32-.346-1.998-.067l2.178 1.267m1.748 3.37c.577.336 1.4.356 2.134.05l-2.218-1.288c-.382.489-.48.911.084 1.238m-7.011-5.267l-1.269-.739 1.002-.579 1.27.738c2.288-1.164 5.104-1.44 7.056-.305 2.46 1.432.821 2.927-.425 4.16l2.475 1.44c.366-.416.285-.827-.3-1.234l2.871-1.659c1.954 1.221 1.5 2.769-.457 4.123l1.284.748-1.003.577-1.267-.736c-2.605 1.373-5.451 1.293-7.147.308-2.428-1.412-.717-2.921.5-4.174l-2.43-1.41c-.29.344-.227.727.287 1.103l-2.888 1.668c-1.84-1.238-1.556-2.679.44-4.029"/>
            <path fill="#D6DCE7" d="M204.995 436.391c.325-.477.368-.884-.18-1.202-.612-.355-1.32-.345-1.998-.065l2.178 1.267m1.748 3.37c.577.336 1.4.355 2.134.052l-2.218-1.292c-.382.49-.48.912.084 1.24m-7.011-5.268l-1.269-.739 1.002-.578 1.27.737c2.288-1.162 5.104-1.439 7.056-.303 2.46 1.43.821 2.926-.425 4.159l2.475 1.44c.366-.417.285-.828-.3-1.234l2.871-1.66c1.954 1.222 1.5 2.769-.457 4.122l1.284.75-1.003.578-1.267-.738c-2.605 1.373-5.451 1.293-7.147.31-2.428-1.414-.717-2.923.5-4.176l-2.43-1.41c-.29.344-.227.729.287 1.103l-2.888 1.667c-1.84-1.238-1.556-2.676.44-4.028"/>
            <path fill="#8D8BB7" d="M187.858 432.02v4.005c0 5.41 8.061 9.798 18.006 9.798 9.946 0 18.008-4.388 18.008-9.798v-4.006h-36.014"/>
            <path fill="#DEE5ED" d="M213.205 444.997a20.98 20.98 0 0 0 1.717-.503c-.554.176-1.128.337-1.717.48v.023"/>
            <path fill="#A5A3C5" d="M213.205 444.974a25.935 25.935 0 0 0 1.789-.503v-9.554h-1.789v10.057m-14.707-.016v-10.081h-1.787v9.555c.574.193 1.163.375 1.787.526m-6.496-2.683v-9.793h-3.139v6.747c.715 1.122 1.774 2.154 3.14 3.046"/>
            <path fill="#D6DCE7" d="M223.872 432.02c0 5.41-8.062 9.797-18.008 9.797-9.945 0-18.006-4.387-18.006-9.798 0-5.409 8.061-9.797 18.006-9.797 9.946 0 18.008 4.388 18.008 9.797"/>
            <path fill="#B0B1CE" d="M219.727 431.897c0 4.067-6.205 7.365-13.863 7.365-7.656 0-13.862-3.298-13.862-7.365s6.206-7.363 13.862-7.363c7.658 0 13.863 3.296 13.863 7.363"/>
            <path fill="#8D8BB7" d="M205.864 425.555c-7.33 0-13.319 3.026-13.814 6.853-.02-.17-.048-.339-.048-.511 0-4.067 6.206-7.363 13.862-7.363 7.658 0 13.863 3.296 13.863 7.363 0 .172-.026.341-.05.51-.494-3.826-6.48-6.852-13.813-6.852"/>
            <path fill="#8D8BB7" d="M204.995 430.811c.325-.476.368-.882-.18-1.202-.612-.354-1.32-.344-1.998-.063l2.178 1.265zm1.748 3.37c.577.337 1.4.357 2.134.052l-2.218-1.29c-.382.49-.48.91.084 1.238zm-7.011-5.266l-1.269-.74 1.002-.578 1.27.738c2.288-1.164 5.104-1.44 7.056-.305 2.46 1.43.821 2.927-.425 4.16l2.475 1.44c.366-.417.285-.827-.3-1.234l2.871-1.66c1.954 1.22 1.5 2.77-.457 4.122l1.284.75-1.003.577-1.267-.736c-2.605 1.372-5.451 1.293-7.147.307-2.428-1.413-.717-2.92.5-4.173l-2.43-1.41c-.29.344-.227.728.287 1.102l-2.888 1.667c-1.84-1.238-1.556-2.677.44-4.027z"/>
            <path fill="#D6DCE7" d="M204.995 430.35c.325-.477.368-.884-.18-1.202-.612-.354-1.32-.347-1.998-.066l2.178 1.268zm1.748 3.37c.577.337 1.4.354 2.134.05l-2.218-1.29c-.382.491-.48.912.084 1.24zm-7.011-5.267l-1.269-.74 1.002-.579 1.27.738c2.288-1.163 5.104-1.439 7.056-.305 2.46 1.432.821 2.927-.425 4.16l2.475 1.44c.366-.416.285-.827-.3-1.232l2.871-1.662c1.954 1.223 1.5 2.768-.457 4.123l1.284.749-1.003.579-1.267-.738c-2.605 1.373-5.451 1.294-7.147.309-2.428-1.413-.717-2.922.5-4.174l-2.43-1.41c-.29.343-.227.726.287 1.102l-2.888 1.668c-1.84-1.24-1.556-2.679.44-4.028z"/>
            <path fill="#8D8BB7" d="M230.451 431.502v4.005c0 5.41 8.062 9.797 18.007 9.797 9.946 0 18.007-4.387 18.007-9.797v-4.005h-36.014"/>
            <path fill="#D5D2E0" d="M255.799 444.48c.6-.146 1.17-.32 1.727-.507-.557.177-1.135.339-1.727.482v.025"/>
            <path fill="#A5A3C5" d="M255.799 444.455c.592-.143 1.17-.305 1.727-.482l.061-.02v-4.005c-.577.185-1.173.353-1.788.502v4.005m-14.707-.015v-3.995a26.417 26.417 0 0 1-1.789-.505v3.973a21.12 21.12 0 0 0 1.789.527m-6.496-2.683v-4.001c-1.354-.888-2.424-1.907-3.14-3.018v3.972c.714 1.12 1.776 2.154 3.14 3.047"/>
            <path fill="#D6DCE7" d="M266.465 431.502c0 5.41-8.061 9.796-18.007 9.796-9.945 0-18.007-4.386-18.007-9.796 0-5.41 8.062-9.798 18.007-9.798 9.946 0 18.007 4.388 18.007 9.798"/>
            <path fill="#B0B1CE" d="M262.32 431.38c0 4.066-6.205 7.364-13.862 7.364s-13.862-3.298-13.862-7.364c0-4.067 6.205-7.365 13.862-7.365s13.863 3.298 13.863 7.365"/>
            <path fill="#8D8BB7" d="M248.458 425.037c-7.332 0-13.318 3.025-13.814 6.853-.022-.169-.048-.338-.048-.512 0-4.065 6.205-7.363 13.862-7.363s13.864 3.298 13.864 7.363c0 .174-.027.343-.05.512-.494-3.828-6.481-6.853-13.814-6.853"/>
            <path fill="#8D8BB7" d="M247.588 430.294c.325-.476.368-.884-.18-1.202-.61-.355-1.318-.345-1.997-.066l2.177 1.268m1.749 3.37c.577.337 1.399.355 2.135.05l-2.22-1.29c-.381.49-.48.912.085 1.24m-7.012-5.267l-1.268-.74 1.001-.579 1.271.738c2.288-1.163 5.104-1.439 7.056-.305 2.46 1.432.821 2.927-.426 4.16l2.475 1.44c.366-.415.287-.827-.3-1.232l2.872-1.662c1.953 1.222 1.5 2.768-.458 4.123l1.285.749-1.003.579-1.269-.737c-2.604 1.371-5.45 1.293-7.144.308-2.43-1.413-.718-2.922.498-4.174l-2.429-1.41c-.289.343-.228.727.287 1.101l-2.888 1.669c-1.84-1.24-1.558-2.679.44-4.028"/>
            <path fill="#D6DCE7" d="M247.588 429.831c.325-.477.368-.882-.18-1.2-.61-.356-1.318-.347-1.997-.067l2.177 1.267m1.749 3.37c.577.336 1.399.355 2.135.05l-2.22-1.289c-.381.49-.48.911.085 1.238m-7.012-5.267l-1.268-.737 1.001-.58 1.271.737c2.288-1.162 5.104-1.439 7.056-.303 2.46 1.43.821 2.927-.426 4.16l2.475 1.439c.366-.417.287-.826-.3-1.234l2.872-1.66c1.953 1.222 1.5 2.769-.458 4.123l1.285.748-1.003.579-1.269-.738c-2.604 1.374-5.45 1.295-7.144.31-2.43-1.414-.718-2.923.498-4.174l-2.429-1.412c-.289.345-.228.729.287 1.103l-2.888 1.668c-1.84-1.238-1.558-2.678.44-4.029"/>
            <path fill="#8D8BB7" d="M230.451 425.512v4.004c0 5.41 8.062 9.797 18.007 9.797 9.946 0 18.007-4.387 18.007-9.797v-4.004h-36.014"/>
            <path fill="#DEE5ED" d="M255.799 438.488a21.087 21.087 0 0 0 1.7-.498c-.549.175-1.117.333-1.7.475v.023"/>
            <path fill="#A5A3C5" d="M255.799 438.465c.583-.142 1.151-.3 1.7-.475.028-.009.058-.02.088-.028v-9.553H255.8v10.056m-14.707-.016v-10.082h-1.789v9.554c.576.195 1.165.377 1.789.528m-6.496-2.684v-9.792h-3.14v6.746c.714 1.123 1.776 2.155 3.14 3.046"/>
            <path fill="#D6DCE7" d="M266.465 425.512c0 5.409-8.061 9.797-18.007 9.797-9.945 0-18.007-4.388-18.007-9.797 0-5.41 8.062-9.8 18.007-9.8 9.946 0 18.007 4.39 18.007 9.8"/>
            <path fill="#B0B1CE" d="M262.32 425.388c0 4.066-6.205 7.365-13.862 7.365s-13.862-3.299-13.862-7.365c0-4.066 6.205-7.363 13.862-7.363s13.863 3.297 13.863 7.363"/>
            <path fill="#8D8BB7" d="M248.458 419.045c-7.332 0-13.319 3.027-13.814 6.854-.022-.17-.048-.34-.048-.511 0-4.066 6.205-7.363 13.862-7.363s13.864 3.297 13.864 7.363c0 .172-.027.341-.05.51-.494-3.826-6.481-6.853-13.814-6.853"/>
            <path fill="#8D8BB7" d="M247.588 424.302c.325-.476.368-.884-.18-1.2-.61-.356-1.318-.346-1.997-.066l2.177 1.266zm1.749 3.37c.577.337 1.399.356 2.133.051l-2.218-1.29c-.381.49-.48.912.085 1.238zm-7.012-5.266l-1.268-.74 1.001-.578 1.27.738c2.289-1.164 5.104-1.44 7.056-.305 2.46 1.43.822 2.927-.425 4.16l2.475 1.439c.366-.416.286-.825-.3-1.233l2.872-1.66c1.953 1.222 1.5 2.77-.458 4.122l1.285.75-1.003.577-1.269-.736c-2.604 1.373-5.45 1.293-7.144.307-2.43-1.413-.718-2.92.497-4.173l-2.428-1.41c-.289.343-.228.728.287 1.102l-2.888 1.667c-1.84-1.238-1.558-2.677.44-4.027z"/>
            <path fill="#D6DCE7" d="M247.588 423.84c.325-.476.368-.883-.18-1.201-.61-.356-1.318-.346-1.997-.065l2.177 1.267zm1.749 3.37c.577.336 1.399.356 2.133.05l-2.218-1.29c-.381.49-.48.913.085 1.24zm-7.012-5.266l-1.268-.74 1.001-.579 1.27.738c2.289-1.163 5.104-1.44 7.056-.305 2.46 1.432.822 2.927-.425 4.16l2.475 1.44c.366-.417.286-.827-.3-1.232l2.872-1.662c1.953 1.222 1.5 2.768-.458 4.122l1.285.749-1.003.58-1.269-.738c-2.604 1.372-5.45 1.294-7.144.309-2.43-1.413-.718-2.923.497-4.174l-2.428-1.411c-.289.344-.228.728.287 1.102l-2.888 1.667c-1.84-1.238-1.558-2.677.44-4.026z"/>
            <path fill="#8D8BB7" d="M146.167 335.677c.14-.125.261-.253.36-.388l.028-.037a1.85 1.85 0 0 0 .234-.452l.01-.024c.052-.157.081-.319.083-.48l-.38 62.069v.02l-.015.175-.035.174-.035.11-.008.024-.012.04-.078.175-.104.181-.04.055-.03.038-.07.099-.192.208-.097.081-.09.077-.113.096a3.702 3.702 0 0 1-.413.269 4.726 4.726 0 0 1-.651.3l-.232.075c-.116.038-.225.082-.346.114l-.174.038-.147.033-.17.038a6.514 6.514 0 0 1-.398.061l-.143.016-.074.008-.134.013-.327.02-.314.003H142.009l-.254-.007-.3-.02-.265-.027-.017-.002-.019-.002-.3-.043-.312-.06-.148-.037-.065-.014-.112-.029a5.58 5.58 0 0 1-.356-.107l-.203-.076-.107-.042-.102-.038a4.577 4.577 0 0 1-.547-.278c-.855-.507-1.279-1.166-1.274-1.822l.38-62.068c-.003.656.42 1.314 1.276 1.822.2.12.42.224.647.316l.108.041c.217.081.44.154.671.213l.064.014c.253.06.515.108.779.142l.018.002c.27.032.543.05.817.053l.027.001c.269.003.536-.011.801-.038l.075-.006c.24-.026.478-.065.71-.113l.148-.036c.178-.041.35-.095.52-.15l.23-.078c.23-.086.45-.183.653-.298.2-.114.371-.237.526-.365l.089-.077"/>
            <path fill="#8C88B5" d="M145.552 336.119c1.75-.99 1.774-2.62.064-3.638-1.718-1.022-4.536-1.05-6.284-.063-1.743.985-1.769 2.616-.048 3.638 1.71 1.018 4.525 1.047 6.268.063"/>
            <path fill="#8D8BB7" d="M166.888 270.92l-7.116-4.09-.293-.162-.304-.148c-.17-.086-.342-.172-.517-.25-.154-.071-.31-.134-.466-.198a14.865 14.865 0 0 0-.54-.207l-.192-.074-.295-.086c-.182-.057-.364-.11-.55-.162a16.876 16.876 0 0 0-1.078-.24l-.243-.052-.274-.034a16.571 16.571 0 0 0-1.15-.123 17.435 17.435 0 0 0-.643-.03l-.317-.015-.211.006c-.263 0-.529.011-.796.024-.16.008-.319.015-.482.026-.302.024-.61.06-.918.1l-.327.035-.057.01c-.49.073-.988.167-1.49.28-.13.029-.265.065-.395.097-.387.095-.776.2-1.17.318l-.26.07-.277.095a29.635 29.635 0 0 0-1.326.47 30.329 30.329 0 0 0-2.058.891c-.22.104-.437.21-.659.32-.238.122-.479.25-.719.379-.147.078-.291.148-.439.23a38.533 38.533 0 0 0-2.913 1.813 44.643 44.643 0 0 0-2.759 2.039l-.262.203a48.459 48.459 0 0 0-1.85 1.587l-.32.31c-.495.455-.977.934-1.459 1.414-.367.366-.737.72-1.098 1.099-.49.513-.961 1.054-1.434 1.592-.278.313-.568.608-.839.93l-.204.251c-.141.171-.278.346-.417.516a61.624 61.624 0 0 0-1.636 2.094c-.154.207-.309.41-.463.619-.096.133-.196.26-.291.392a60.615 60.615 0 0 0-1.476 2.16c-.106.16-.209.322-.313.483-.19.294-.383.584-.57.882-.18.293-.343.6-.52.896-.36.599-.714 1.2-1.055 1.81-.125.225-.267.441-.391.67-.154.284-.287.576-.436.86-.301.576-.596 1.15-.878 1.732-.125.257-.266.506-.387.762-.13.275-.238.556-.364.83a61.508 61.508 0 0 0-.767 1.762c-.116.277-.25.55-.362.827-.101.254-.18.511-.28.764-.247.641-.48 1.283-.705 1.926-.105.304-.231.607-.332.91-.12.368-.228.737-.342 1.104-.05.163-.103.326-.151.49a53.107 53.107 0 0 0-.646 2.332c-.046.18-.079.357-.122.537-.065.272-.122.542-.183.815-.179.8-.335 1.598-.47 2.394-.04.233-.088.467-.123.699l-.057.33c-.093.621-.144 1.232-.209 1.849-.037.353-.092.71-.12 1.062a40.01 40.01 0 0 0-.132 3.14c.004 8.65 3.06 14.735 7.987 17.558l7.116 4.09 37.795-66.013"/>
            <path fill="#D6DCE7" d="M124.76 317.849c.269-15.015 10.91-33.473 23.716-41.149 12.812-7.68 23.011-1.712 22.744 13.303-.268 15.01-10.905 33.471-23.717 41.15-12.805 7.676-23.01 1.706-22.743-13.304m50.115-29.37c-.008-17.192-12.073-24.244-26.9-15.727-14.826 8.52-26.877 29.431-26.87 46.622.008 17.192 12.074 24.246 26.9 15.727 14.827-8.52 26.88-29.43 26.87-46.622"/>
            <path fill="#FFFFFE" d="M124.76 317.849c-.268 15.01 9.938 20.98 22.743 13.304 12.812-7.679 23.449-26.14 23.717-41.15.267-15.015-9.932-20.982-22.744-13.303-12.805 7.676-23.447 26.134-23.716 41.149"/>
            <path fill="#8C88B5" d="M168.532 288.452c-.269 15.009-10.905 33.47-23.716 41.15-5.678 3.4-10.84 4.117-14.809 2.56 4.16 3.3 10.43 3.226 17.496-1.01 12.812-7.678 23.449-26.139 23.717-41.148.149-8.36-2.95-13.91-7.934-15.867 3.378 2.68 5.364 7.585 5.246 14.315"/>
            <path fill="#ADA6C6" d="M340.186 349.515a8.422 8.422 0 0 0 2.947-1.049l16.021-9.344a4.042 4.042 0 0 0 1.498-1.508l-3.768 2.19c-.256.15-.59.222-.924.222-.336 0-.672-.074-.927-.221l-4.9-2.832c-.518-.298-.527-.777-.014-1.076l6.36-3.698c.252-.148.584-.221.918-.221.338 0 .677.075.936.225l2.284 1.318a4.04 4.04 0 0 0-1.498-1.466l-1.976-1.126-3.388 1.97c-.254.146-.589.222-.925.222-.335 0-.67-.074-.926-.223l-4.018-2.321-.894.521 4.017 2.321c.516.298.518.773.005 1.072l-6.359 3.698c-.256.15-.595.225-.934.225-.333 0-.667-.073-.922-.22l-4.005-2.315-.899.525 4.003 2.312c.516.299.518.776.005 1.073l-6.36 3.698c-.254.149-.59.224-.923.224-.333 0-.668-.075-.924-.224l-3.35-1.934c-.137.273-.244.56-.317.855l2.77 1.6c.516.297.512.778.007 1.072l-1.843 1.072c.194.213.414.408.661.582a.898.898 0 0 1 .284-.248l6.36-3.698c.25-.146.586-.22.922-.22.337 0 .677.074.935.224l4.903 2.833c.508.293.51.779.006 1.07l-4.848 2.82m8.118-12.245c.337 0 .674.074.932.224l4.903 2.83c.51.295.51.78-.001 1.079l-6.36 3.696c-.252.148-.587.222-.923.222-.336 0-.672-.074-.926-.222l-4.903-2.83c-.514-.3-.518-.784-.011-1.077l6.357-3.698c.257-.15.594-.224.932-.224"/>
            <path fill="#D2CFDE" d="M572.794 377.021c19.425-7.307 32.152-19.51 32.152-33.328 0-22.359-33.315-40.49-74.42-40.49-9.972 0-19.485 1.068-28.176 3.005-1.096 6.352-.758 11.817.627 16.543 8.055-2.19 17.48-3.449 27.55-3.449 29.667 0 53.714 10.921 53.714 24.39 0 8.272-9.069 15.583-22.94 19.994 4.494 3.837 8.444 8.364 11.493 13.335"/>
            <path fill="#CCC7DA" d="M530.526 384.18c15.7 0 30.262-2.644 42.268-7.159-3.05-4.971-6.999-9.498-11.493-13.335-8.715 2.772-19.326 4.398-30.774 4.398-29.66 0-53.707-10.923-53.707-24.392 0-8.896 10.488-16.68 26.157-20.94-1.385-4.727-1.723-10.192-.627-16.544-27.124 6.044-46.234 20.552-46.234 37.485 0 22.357 33.317 40.488 74.41 40.488"/>
            <path fill="#7B7BAD" d="M530.527 365.4c29.065 0 52.623-10.7 52.623-23.896 0-13.195-23.558-23.896-52.623-23.896-29.057 0-52.617 10.7-52.617 23.896 0 13.196 23.56 23.896 52.617 23.896zm-72.9-50.37s11.01-27.32 72.904-27.32c61.892 0 72.903 40.051 72.903 40.051v13.743c0 21.904-32.64 39.666-72.908 39.666-40.258 0-72.899-17.762-72.899-39.666V315.03z"/>
            <path fill="#B0B0CD" d="M530.527 338.925c29.065 0 52.623-10.7 52.623-23.895 0-13.196-23.558-23.896-52.623-23.896-29.057 0-52.617 10.7-52.617 23.896 0 13.195 23.56 23.895 52.617 23.895zm-.001-63.56c40.268 0 72.908 17.761 72.908 39.665 0 21.903-32.64 39.666-72.908 39.666-40.258 0-72.899-17.763-72.899-39.666 0-21.904 32.64-39.666 72.899-39.666z"/>
            <path fill="#562E8A" d="M486.493 338.992c9.398 6.514 25.606 10.823 44.034 10.823.46 0 .915-.012 1.372-.017v31.353c-.459.004-.912.019-1.372.019-27.31 0-51.096-8.178-63.585-20.27v-26.476s17.468 5.222 19.551 4.568"/>
            <path fill="#562E8A" fill-opacity=".501" d="M486.493 328.103c9.398 6.516 25.606 10.822 44.034 10.822.46 0 .915-.01 1.372-.014v15.766c-.459.004-.912.02-1.372.02-27.31 0-51.096-8.18-63.585-20.273 4.441-1.43 8.871-2.9 13.303-4.36 2.077-.681 4.165-1.307 6.248-1.961"/>
            <path fill="#AA459F" d="M531.597 354.365c25.332.9 52.66-13.434 51.497-27.427 6.796 0 20.34-10.889 20.34-10.889v25.471c0 21.708-32.065 39.337-71.837 39.65v-26.805"/>
            <path fill="#AA459F" fill-opacity=".527" d="M531.595 338.913c27.82-.253 50.336-10.303 51.5-22.864h20.292c-.987 21.238-32.645 38.324-71.792 38.632v-15.768"/>
            <path fill="#CCC7DA" d="M482.386 390.052c1.331 0 2.662-.34 3.86-1.021l2.524-1.44c2.52-1.434 2.537-5.064.032-6.526l-14.793-8.627a7.783 7.783 0 0 0-7.782-.039l-2.526 1.44c-2.52 1.435-2.537 5.063-.033 6.524l14.792 8.628a7.785 7.785 0 0 0 3.926 1.061"/>
            <path fill="#ADA6C6" d="M310.21 374.916l1.002-.57a1.553 1.553 0 0 1-.357-.147l-4.9-2.832c-.51-.295-.512-.78-.007-1.073l5.113-2.973-8.239-4.806-3.717 2.163c-.258.15-.595.225-.933.225-.333 0-.667-.073-.923-.221l-4.903-2.833c-.516-.297-.51-.776.001-1.076l3.706-2.155a7.864 7.864 0 0 0-.926-.347 1.1 1.1 0 0 1-.149.103l-6.359 3.698c-.251.146-.586.22-.92.22-.338 0-.678-.074-.937-.224l-1.342-.775a3.7 3.7 0 0 0-.478.76l.926.535c.515.299.525.778.013 1.077l-1.232.716c.047.252.121.501.22.741l4.732-2.751c.257-.15.59-.224.924-.224.335 0 .67.074.927.224l4.902 2.83c.514.3.518.775.006 1.073l-5.52 3.21.76.443 1.124-.655c.252-.146.586-.219.92-.219.34 0 .678.075.937.223l4.902 2.832c.509.295.51.78.006 1.073l-1.157.673.747.435 4.13-2.403c.256-.148.589-.222.922-.222.336 0 .673.076.928.222l4.903 2.832c.103.06.186.126.248.198m-7.458-11.157c.337 0 .676.075.933.224l4.902 2.832c.51.292.512.777 0 1.076l-6.36 3.697c-.255.149-.589.222-.922.222-.336 0-.672-.074-.929-.222l-4.9-2.83c-.516-.3-.526-.78-.013-1.077l6.359-3.698c.257-.149.593-.224.93-.224"/>
            <path fill="#3E3880" d="M516.763 295.462c.395 2.408 1.227 6.29 1.622 8.697.14.851.279 1.716.18 2.572-.1.855-.473 1.718-1.174 2.218-.907.65-2.127.565-3.238.453l-4.984-.505c-.856-.085-1.724-.176-2.522-.498-.798-.32-1.529-.912-1.815-1.723-.356-1.005.023-2.106.398-3.106l1.99-5.277c.307-.818.615-1.636 1.013-2.414"/>
            <path fill="#19173C" d="M485.383 375.897l.23 5.267-10.343 4.493 5.023-7.823 1.338-3.07 3.752 1.133M477.606 372.479l.232 5.268-11.27 1.3 5.947-4.632 1.338-3.07 3.753 1.134"/>
            <path fill="#4E498B" d="M510.619 330.384c1.799 7.539-2.242 9.219-6.862 10.887-4.954 1.79-14.854 3.261-14.854 3.261l-10.636 28.933c-1.835 1.313-3.776.853-5.792-.843l9.002-33.004 17.786-9.94 11.356.706"/>
            <path fill="#574C8D" d="M515.385 334.041c1.8 7.54-2.24 9.22-6.863 10.889-4.952 1.79-14.853 3.26-14.853 3.26l-7.326 28.366c-1.537 1.398-3.625 1.188-6.05 0l7.045-32.864 16.039-10.335 12.008.684"/>
            <path fill="#DA1C75" d="M497.726 330.536c.306-2.019 4.336-1.526 3.95-10.34-.25-5.69.678-13.03 3.87-14.725 2.683-1.424 8.13 1.08 9.578 2.003 3.082 1.964 1.523 3.128 2.182 6.725.66 3.597.437 19.6.437 23.256 0 1.394-12.55 4.222-19.273-4.514"/>
            <path fill="#7874A9" d="M498.562 343.04l9.457-5.504c.121-.072.115-.244-.006-.315l-17.326-10.075h-.185l-9.44 5.497a.183.183 0 0 0 0 .316l17.325 10.076.175.005"/>
            <path fill="#DEDFE9" d="M481.13 332.68l17.235 10.024h.23l9.348-5.445a.23.23 0 0 0 0-.397l-17.234-10.02h-.229l-9.35 5.442a.23.23 0 0 0 0 .396"/>
            <path fill="#F7D0B6" d="M492.697 328.302c-1.57.343-4.461 2.286-4.167 2.846.293.56 1.819 1.94 5.4-1.422 3.58-3.362-1.233-1.424-1.233-1.424"/>
            <path fill="#DE4E8D" d="M499.635 328.284l-5.686 2.63c-.138-1.349-1.53-1.997-3.034-2.006l9.452-6.322 1.309-4.724s.045 3.275 0 4.549c-.089 2.49-.72 4.686-2.041 5.873"/>
            <path fill="#F7D0B6" d="M512.293 306.926c.082 1.248-3.55.497-3.07-.486l.723-3.969c.08-.439.168-.895.435-1.252 1.005-1.345 1.77-.316 1.828.768.088 1.64.056 3.297.084 4.94"/>
            <path fill="#F7D0B6" d="M507.69 299.016c-.449-1.349-.567-2.856-.04-4.175.527-1.32 1.79-2.391 3.21-2.423 1.51-.034 2.872 1.108 3.454 2.504.583 1.395.506 2.982.185 4.459-.268 1.234-.737 2.49-1.696 3.31-2.826 2.422-4.38-1.464-5.113-3.675"/>
            <path fill="#3E3880" d="M511.058 297.262a1.159 1.159 0 0 1-.908 1.093 1.158 1.158 0 0 1-1.25-.672c-.123.559-.78.895-1.34.771-.56-.122-.988-.611-1.167-1.156-.178-.545-.139-1.136-.032-1.7.104-.552.273-1.09.501-1.603a5.362 5.362 0 0 1 .966-1.501c.993-1.057 3.936-1.734 5.373-.485 2.938-.375 3.622 2.38 3.66 4.774.2 1.33-.762 2.33-1.179 3.61-.23.706-.817.964-1.553.857-.625-.091 1.048-1.4.7-3.062-.181-.862-1.038 1.057-1.333.953l-.294-1.986c-.58.434-1.548 1.13-2.144.107"/>
            <path fill="#F7D0B6" d="M503.592 334.327c-1.57.342-4.463 2.284-4.169 2.846.294.56 1.82 1.938 5.4-1.423 3.582-3.362-1.231-1.423-1.231-1.423"/>
            <path fill="#DE4E8D" d="M515.758 308.055c4.471.757 3.832 17.474 2.263 20.816-1.568 3.344-13.154 7.631-13.154 7.631-.44-1.526-1.212-2.33-2.272-2.504l11.035-8.074s.023-7.33-.056-9.957c-.053-1.794-1.61-8.553 2.184-7.912"/>
            <path fill="#7B7BAD" d="M498.724 342.382l-3.084-10.398a.502.502 0 0 0-.232-.292l-16.909-9.831a.279.279 0 0 0-.406.322l3.083 10.388c.036.124.12.23.232.296l16.907 9.831c.218.126.48-.075.409-.316"/>
            <path fill="#D6DCE7" d="M498.281 342.578c-.652-2.204-2.717-9.159-3.084-10.397a.507.507 0 0 0-.23-.29l-16.908-9.832a.28.28 0 0 0-.409.32l3.083 10.389c.038.124.121.23.233.296l16.906 9.831c.219.127.482-.074.41-.317"/>
            <path fill="#CCC7DA" d="M389.705 485.052c1.033 0 2.065-.229 2.85-.685l110.555-64.29c1.57-.912 1.561-2.395-.025-3.31l-82.746-47.2c-.793-.458-1.83-.687-2.864-.687-1.033 0-2.065.228-2.85.684l-110.555 64.29c-1.57.913-1.562 2.395.025 3.31l82.746 47.2c.793.459 1.83.688 2.864.688"/>
            <path fill="#B0B1CE" d="M420.058 368.26c-1.56-.9-4.075-.9-5.617-.003l-108.697 63.209c-1.544.898-1.536 2.355.023 3.254l81.355 46.408c1.56.9 4.075.9 5.618.002l108.696-63.208c1.543-.898 1.536-2.355-.024-3.256l-81.354-46.407"/>
            <path fill="#FFFFFE" d="M418.884 372.283c-1.447-.837-3.783-.837-5.217-.003L312.72 430.983c-1.434.833-1.426 2.187.023 3.024l75.553 43.097c1.448.837 3.784.837 5.217.003l100.946-58.703c1.435-.834 1.427-2.187-.02-3.024l-75.555-43.097"/>
            <path fill="#8D8BB7" d="M433.67 371.8c-1.116-.643-2.916-.643-4.02 0l-4.223 2.587c-1.105.642-1.098 1.685.017 2.329l58.21 33.206c1.117.643 2.917.643 4.02.002l4.225-2.588c1.104-.643 1.098-1.684-.017-2.33l-58.213-33.205"/>
            <path fill="#DEDFE9" d="M473.121 420.493c.426 0 .84-.219 1.07-.607a1.212 1.212 0 0 0-.453-1.666l-65.469-37.27a1.247 1.247 0 0 0-1.685.448 1.21 1.21 0 0 0 .452 1.664l65.469 37.269c.194.11.406.162.616.162zm-9.2 5.599a1.24 1.24 0 0 0 1.07-.61 1.21 1.21 0 0 0-.451-1.664l-65.47-37.27a1.246 1.246 0 0 0-1.686.448 1.209 1.209 0 0 0 .452 1.663l65.469 37.27c.197.11.408.163.616.163zm-9.199 5.598c.426 0 .84-.22 1.07-.609a1.211 1.211 0 0 0-.452-1.664l-65.47-37.27a1.245 1.245 0 0 0-1.686.447 1.21 1.21 0 0 0 .453 1.663l65.47 37.27c.193.11.404.163.615.163zm-9.2 5.6c.428 0 .842-.22 1.07-.61a1.208 1.208 0 0 0-.45-1.664l-65.47-37.27a1.246 1.246 0 0 0-1.685.446 1.208 1.208 0 0 0 .452 1.663l65.467 37.271c.197.111.407.163.616.163zm-9.198 5.597c.427 0 .841-.219 1.07-.61a1.21 1.21 0 0 0-.451-1.663l-65.47-37.27a1.245 1.245 0 0 0-1.688.445 1.211 1.211 0 0 0 .454 1.664l65.47 37.271c.194.111.405.163.615.163zm-9.2 5.598c.426 0 .841-.219 1.07-.61a1.209 1.209 0 0 0-.451-1.663l-65.47-37.27a1.243 1.243 0 0 0-1.685.445 1.21 1.21 0 0 0 .452 1.665l65.468 37.27c.195.111.406.163.616.163zm-9.199 5.599c.427 0 .842-.22 1.07-.61a1.21 1.21 0 0 0-.452-1.664l-65.47-37.27a1.242 1.242 0 0 0-1.686.445 1.212 1.212 0 0 0 .452 1.665l65.47 37.27c.196.11.407.164.616.164zm-9.2 5.596c.426 0 .842-.219 1.07-.608a1.209 1.209 0 0 0-.451-1.663l-65.469-37.27a1.241 1.241 0 0 0-1.686.446 1.209 1.209 0 0 0 .452 1.664l65.468 37.268c.196.111.408.163.616.163zm-9.198 5.598a1.24 1.24 0 0 0 1.07-.608c.34-.583.136-1.33-.453-1.665l-65.469-37.268a1.242 1.242 0 0 0-1.685.446 1.21 1.21 0 0 0 .452 1.663l65.469 37.27c.195.11.405.162.616.162z"/>
            <path fill="#CCC7DA" d="M307.605 521.892c1.797 0 3.594-.465 5.204-1.395l43.292-25.01c2.107-1.218 2.107-4.263 0-5.482l-63.574-36.727a11.455 11.455 0 0 0-11.47 0l-39.167 22.628c-3.706 2.14-3.706 7.491 0 9.631l60.512 34.96c1.61.93 3.406 1.395 5.203 1.395"/>
            <path fill="#8D8BB7" d="M240.839 474.475l2.653.389 43.655-25.219 65.092 37.604v-.725l3.686-.12v3.717a4.434 4.434 0 0 1-2.21 3.835l-41.088 23.798a10.672 10.672 0 0 1-10.667.017l-58.697-33.806a4.838 4.838 0 0 1-2.424-4.193v-5.297"/>
            <path fill="#B0B1CE" d="M312.262 513.433l42.205-24.383c1.944-1.122 1.944-3.93 0-5.052l-61.84-35.726a10.954 10.954 0 0 0-10.96 0l-38.21 22.074c-3.49 2.016-3.49 7.055 0 9.072l58.876 34.015a9.928 9.928 0 0 0 9.929 0"/>
            <path fill="#D6DCE7" d="M248.407 472.025l33.886-19.576a11.063 11.063 0 0 1 11.075 0c2.453 1.417 2.453 4.958 0 6.375L259.482 478.4a11.063 11.063 0 0 1-11.075 0c-2.453-1.417-2.453-4.958 0-6.375"/>
            <path fill="#8D8BB7" d="M307.906 471.118l7.241-4.184c.76-.44.76-1.536 0-1.974l-7.24-4.183a1.132 1.132 0 0 0-1.14 0l-7.243 4.183a1.14 1.14 0 0 0 0 1.974l7.244 4.184c.351.203.785.203 1.138 0M296.079 477.95l7.24-4.184a1.14 1.14 0 0 0 0-1.973l-7.24-4.184a1.141 1.141 0 0 0-1.14 0l-7.242 4.184a1.14 1.14 0 0 0 0 1.973l7.242 4.184c.352.205.787.205 1.14 0M284.25 484.785l7.243-4.184a1.14 1.14 0 0 0 0-1.974l-7.242-4.184a1.141 1.141 0 0 0-1.14 0l-7.241 4.184a1.14 1.14 0 0 0 0 1.974l7.24 4.184c.354.204.789.204 1.14 0"/>
            <path fill="#AA459F" d="M272.423 491.618l7.243-4.184a1.14 1.14 0 0 0 0-1.975l-7.243-4.184a1.141 1.141 0 0 0-1.14 0l-7.24 4.184a1.14 1.14 0 0 0 0 1.975l7.24 4.184c.354.203.789.203 1.14 0"/>
            <path fill="#D6DCE7" d="M319.855 478.02l7.242-4.182c.76-.44.76-1.537 0-1.976l-7.242-4.184a1.141 1.141 0 0 0-1.14 0l-7.241 4.184c-.76.44-.76 1.537 0 1.976l7.24 4.183c.354.203.788.203 1.14 0M308.026 484.854l7.244-4.184a1.14 1.14 0 0 0 0-1.973l-7.243-4.184a1.135 1.135 0 0 0-1.14 0l-7.24 4.184a1.14 1.14 0 0 0 0 1.973l7.24 4.184c.354.204.787.204 1.14 0M296.199 491.687l7.242-4.184c.76-.438.76-1.536 0-1.974l-7.242-4.183a1.139 1.139 0 0 0-1.139 0l-7.242 4.183a1.14 1.14 0 0 0 0 1.974l7.242 4.184c.353.204.787.204 1.139 0M284.372 498.52l7.242-4.183a1.14 1.14 0 0 0 0-1.975l-7.242-4.184a1.141 1.141 0 0 0-1.14 0l-7.241 4.184a1.14 1.14 0 0 0 0 1.975l7.24 4.184c.354.203.789.203 1.14 0M331.803 484.925l7.242-4.184a1.14 1.14 0 0 0 0-1.975l-7.242-4.184a1.141 1.141 0 0 0-1.14 0l-7.24 4.184a1.14 1.14 0 0 0 0 1.975l7.24 4.184c.354.203.788.203 1.14 0M319.976 491.757l7.242-4.184a1.14 1.14 0 0 0 0-1.973l-7.242-4.184a1.135 1.135 0 0 0-1.14 0l-7.24 4.184a1.14 1.14 0 0 0 0 1.973l7.24 4.184c.353.203.788.203 1.14 0M308.149 498.59l7.242-4.184a1.14 1.14 0 0 0 0-1.974l-7.242-4.184a1.135 1.135 0 0 0-1.14 0l-7.241 4.184a1.14 1.14 0 0 0 0 1.974l7.24 4.184c.354.204.788.204 1.14 0"/>
            <path fill="#562E8A" d="M309.09 511.852l6.204-3.583a1.286 1.286 0 0 0 0-2.227l-18.152-10.487a2.782 2.782 0 0 0-2.781 0l-6.203 3.583a1.286 1.286 0 0 0 0 2.228l18.151 10.486c.86.498 1.922.498 2.781 0"/>
            <path fill="#D6DCE7" d="M343.751 491.828l7.244-4.184a1.14 1.14 0 0 0 0-1.975l-7.244-4.184a1.139 1.139 0 0 0-1.138 0l-7.241 4.184a1.14 1.14 0 0 0 0 1.975l7.24 4.184c.354.203.788.203 1.14 0M331.924 498.66l7.242-4.184a1.14 1.14 0 0 0 0-1.975l-7.242-4.184a1.139 1.139 0 0 0-1.138 0l-7.243 4.184a1.14 1.14 0 0 0 0 1.975l7.243 4.184c.353.203.786.203 1.138 0M320.097 505.494l7.242-4.184a1.14 1.14 0 0 0 0-1.975l-7.242-4.184a1.141 1.141 0 0 0-1.14 0l-7.242 4.184a1.14 1.14 0 0 0 0 1.975l7.242 4.184c.353.203.788.203 1.14 0"/>
            <path fill="#CCC7DA" d="M438.968 329.945c9.374 0 16.972-4.038 16.972-9.019 0-4.977-7.598-9.014-16.972-9.014-9.372 0-16.97 4.037-16.97 9.014 0 4.98 7.598 9.019 16.97 9.019"/>
            <path fill="#B0B0CD" d="M458.084 295.77l-3.72 22.675c-.342 5.294-7.148 9.413-15.215 9.413-8.065 0-14.873-4.119-15.214-9.413l-3.72-22.674h37.87"/>
            <path fill="#8D8BB7" d="M458.084 291.52v5.859c0 6.264-8.477 11.342-18.935 11.342-10.457 0-18.934-5.078-18.934-11.342v-5.859h37.87"/>
            <path fill="#D6DCE7" d="M420.215 291.52c0 6.264 8.477 11.342 18.934 11.342 10.458 0 18.935-5.078 18.935-11.342s-8.477-11.342-18.935-11.342c-10.457 0-18.934 5.078-18.934 11.342"/>
            <path fill="#FFFFFE" d="M439.15 300.935c10.317 0 17.505-4.962 17.505-9.415 0-4.452-7.188-9.414-17.506-9.414-10.316 0-17.505 4.962-17.505 9.414 0 4.453 7.189 9.415 17.505 9.415"/>
            <path fill="#B0B0CD" d="M439.15 300.935c10.317 0 17.505-4.962 17.505-9.415 0-4.452-7.188-9.414-17.506-9.414-10.316 0-17.505 4.962-17.505 9.414 0 4.453 7.189 9.415 17.505 9.415"/>
            <path fill="#7B7BAD" d="M439.15 288.526c7.847 0 13.88 2.87 16.321 6.204-2.44 3.335-8.474 6.205-16.322 6.205-7.847 0-13.88-2.87-16.321-6.205 2.441-3.334 8.474-6.204 16.321-6.204"/>
            <path fill="#545392" d="M446.533 273.495c-.216-1.976-.505-3.99-1.417-5.757-.91-1.767-2.557-3.27-4.532-3.498-2.128-.246-4.207 1.043-5.459 2.783-1.253 1.738-1.822 3.868-2.276 5.963a76.242 76.242 0 0 0-1.743 16.566c.008 2.012.13 4.137 1.227 5.825 1.357 2.09 3.983 3.07 6.475 3.084 1.78.01 5.835-.293 7.166-1.663 1.295-1.332.904-5.022 1.002-6.78.308-5.508.16-11.04-.443-16.523"/>
            <path fill="#545392" d="M451.882 279.684a12.513 12.513 0 0 0 .897-8.893c-.246-.898-.823-1.93-1.752-1.895-.802.028-1.343.89-1.398 1.69-.053.8.22 1.581.314 2.378.235 2.03-.839 4.152-2.611 5.166-.91.519-1.971.767-2.797 1.41a3.625 3.625 0 0 0-1.334 3.3c.88 6.22 7.46-.755 8.68-3.156M428.623 282.391a11.327 11.327 0 0 1-3.482-6.698c-.131-.955-.083-2.062.641-2.7.81-.712 2.152-.463 2.924.287.773.751 1.088 1.854 1.25 2.92.161 1.065.205 2.161.57 3.176.365 1.014 1.14 1.967 2.199 2.168 1.175.223 2.544-.482 3.509.224 1.903 1.39.09 3.468-1.544 3.511-2.089.054-4.608-1.532-6.067-2.888"/>
            <path fill="#CCC7DA" d="M435.983 488.066c.812 0 1.626-.211 2.353-.634l72.442-42.127c3.126-1.817 3.104-6.342-.04-8.13a4.69 4.69 0 0 0-4.669.023l-72.441 42.126c-3.125 1.818-3.104 6.342.04 8.13.718.409 1.516.612 2.315.612"/>
            <path fill="#B0B1CE" d="M442.394 470.956a3.038 3.038 0 0 0-.624-.135l-.056-.006a2.308 2.308 0 0 0-.612.03l-.03.008c-.196.042-.38.11-.549.207l64.572-37.624.02-.011.192-.093.2-.072.137-.031.03-.006.047-.012.23-.026.252-.002.082.008.056.005.145.015.335.071.144.05.133.046.17.058c.174.073.351.16.53.265.244.14.48.309.71.493l.22.194.332.29.146.156.125.134.142.151c.105.121.208.246.308.375l.103.141.054.072.096.131.22.329.197.322.016.027.014.026.148.267.164.325.133.292.01.02.009.018.139.341c.046.118.089.238.129.359l.053.176.024.075.04.135c.04.144.076.29.107.434l.068.396.022.128c.032.25.048.496.048.737-.003 1.2-.427 2.041-1.11 2.439l-64.571 37.623c.682-.396 1.106-1.24 1.11-2.438 0-.282-.028-.573-.072-.866l-.024-.137a7.067 7.067 0 0 0-.191-.827l-.024-.077a8.818 8.818 0 0 0-.33-.894l-.008-.02a9.327 9.327 0 0 0-.446-.882l-.015-.026c-.162-.28-.34-.55-.53-.81l-.051-.072a8.38 8.38 0 0 0-.554-.666l-.126-.134a6.927 6.927 0 0 0-.477-.446l-.22-.194a6.085 6.085 0 0 0-.709-.494 4.435 4.435 0 0 0-.702-.322l-.131-.046"/>
            <path fill="#8D8BB7" d="M511.527 439.508l-.022-.128-.068-.396a7.798 7.798 0 0 0-.107-.434l-.04-.135-.024-.075-.053-.178c-.04-.12-.083-.24-.129-.357l-.14-.341-.009-.02-.009-.018-.133-.292-.164-.325-.148-.267-.014-.026-.016-.027-.197-.322-.22-.329-.096-.131-.054-.072-.103-.14a8.758 8.758 0 0 0-.308-.376l-.142-.151-.125-.134-.146-.156-.331-.29-.22-.194a5.828 5.828 0 0 0-.71-.493 4.667 4.667 0 0 0-.53-.265l-.17-.058-.134-.046-.144-.05-.335-.071-.145-.015-.056-.005-.082-.008-.251.002-.23.026-.048.012-.03.006-.136.031-.2.072-.192.093-.021.011-3.439 2.005h.013l.089.008.06.006.156.017c.117.017.237.043.358.076l.154.053.143.048.182.064c.187.079.377.172.57.283.26.151.513.331.76.528l.236.207c.119.103.241.201.356.313l.156.167.133.143.154.163c.113.13.222.264.33.402l.11.15.057.078.103.14c.082.117.16.233.237.352l.211.346.016.03.015.027.16.287.176.347.142.312.02.042a9.129 9.129 0 0 1 .288.75l.056.189.026.082.043.143c.043.155.082.31.114.467l.049.276.024.147.024.137c.035.267.052.532.05.791 0 .642-.114 1.19-.32 1.628l3.358-1.956c.683-.398 1.107-1.24 1.11-2.439 0-.24-.016-.487-.048-.737"/>
            <path fill="#FFFFFE" d="M443.227 471.324c-1.047-.604-2-.664-2.688-.273-.69.393-9.243 12.745-9.243 12.745s13.898-3.088 14.586-3.483c.689-.393 1.118-1.24 1.121-2.444.007-2.4-1.689-5.338-3.776-6.545"/>
            <path fill="#8D8BB7" d="M434.796 478.79c-1.884 2.672-3.5 5.006-3.5 5.006s2.52-.56 5.463-1.234c1.181-1.744-.974-4.18-1.963-3.771"/>
        </g>
    </g>
</svg>
